<?xml version="1.0" encoding="UTF-8"?>
<svg version="1.1" xmlns="http://www.w3.org/2000/svg" width="360" height="336">
<path d="M0 0 C118.8 0 237.6 0 360 0 C360 110.88 360 221.76 360 336 C241.2 336 122.4 336 0 336 C0 225.12 0 114.24 0 0 Z " fill="#AA9777" transform="translate(0,0)"/>
<path d="M0 0 C2.3431213 0.25561323 4.67843403 0.59270772 7 1 C8.2263757 3.45275141 8.11415314 5.0505781 8.09765625 7.7890625 C8.09282227 9.20058594 8.09282227 9.20058594 8.08789062 10.640625 C8.07532227 12.11789063 8.07532227 12.11789063 8.0625 13.625 C8.05798828 14.61757812 8.05347656 15.61015625 8.04882812 16.6328125 C8.03702145 19.0886016 8.020554 21.54427104 8 24 C8.66 24 9.32 24 10 24 C10.029729 25.18589722 10.029729 25.18589722 10.06005859 26.39575195 C10.15628188 30.03495922 10.26556142 33.67366711 10.375 37.3125 C10.4059375 38.55580078 10.436875 39.79910156 10.46875 41.08007812 C10.67836178 47.73525215 11.16531775 54.08404426 12.54785156 60.60351562 C13.02646564 63.14027361 13.22836633 65.61181439 13.375 68.1875 C14.1926455 78.18572659 16.82431173 88.10407069 21.25 97.09375 C22.45377423 100.15334283 22.27624716 102.75409591 22 106 C21.34 106 20.68 106 20 106 C20 106.66 20 107.32 20 108 C20.66 108 21.32 108 22 108 C22.28875 108.969375 22.5775 109.93875 22.875 110.9375 C23.64214682 114.10664203 23.64214682 114.10664203 26 115 C24.515 115.495 24.515 115.495 23 116 C23 117.98 23 119.96 23 122 C22.01 122 21.02 122 20 122 C20 122.66 20 123.32 20 124 C20.928125 123.95875 21.85625 123.9175 22.8125 123.875 C26 124 26 124 29 126 C29 126.66 29 127.32 29 128 C29.99 128 30.98 128 32 128 C32 128.99 32 129.98 32 131 C32.969375 130.814375 33.93875 130.62875 34.9375 130.4375 C36.4534375 130.2209375 36.4534375 130.2209375 38 130 C38.33 130.33 38.66 130.66 39 131 C41.10703914 131.22948511 43.22103615 131.39562256 45.3359375 131.53515625 C47.27339844 131.66567383 47.27339844 131.66567383 49.25 131.79882812 C50.62499929 131.88672987 51.9999993 131.97462036 53.375 132.0625 C54.74221438 132.15389566 56.10940233 132.24568756 57.4765625 132.33789062 C66.30269139 133.15157202 66.30269139 133.15157202 75 132.0625 C75.680625 131.88847656 76.36125 131.71445313 77.0625 131.53515625 C78.72384102 131.07627778 80.36489722 130.54503426 82 130 C83 132 83 132 82.8125 134 C82 136 82 136 80.0625 137.3125 C79.381875 137.539375 78.70125 137.76625 78 138 C77.34 137.67 76.68 137.34 76 137 C76 137.66 76 138.32 76 139 C68.07967626 141.09191275 60.4750082 142.37660889 52.29296875 142.8125 C49.37831306 142.97845904 46.52123698 143.27017771 43.625 143.625 C39.20386618 144.09379886 35.39759467 143.62822781 31 143 C26.48852124 142.79799349 22.36804759 142.76041893 18 144 C18.33837891 145.24136719 18.33837891 145.24136719 18.68359375 146.5078125 C19.08137393 150.89812712 17.81101463 153.95216666 16.0625 157.875 C15.59021973 158.97569824 15.59021973 158.97569824 15.10839844 160.09863281 C6.44383546 179.98716354 6.44383546 179.98716354 1 188 C0.34 188 -0.32 188 -1 188 C-1.103125 188.598125 -1.20625 189.19625 -1.3125 189.8125 C-2.09824033 192.31258286 -2.96918853 193.37535082 -5 195 C-5.66 195 -6.32 195 -7 195 C-7 195.66 -7 196.32 -7 197 C-6.34 197 -5.68 197 -5 197 C-5 197.66 -5 198.32 -5 199 C-4.34 199 -3.68 199 -3 199 C-2.67 199.99 -2.34 200.98 -2 202 C-6.04141194 202.63394697 -9.9065307 203.12404452 -14 203 C-14.33 202.34 -14.66 201.68 -15 201 C-16.74271938 203.297221 -18.39911152 205.59866729 -20 208 C-20.20086443 204.28400809 -20.1519437 203.22791555 -18 200 C-17.34 200 -16.68 200 -16 200 C-15.49157086 194.66149403 -16.8961924 192.26773545 -20 188 C-20 187.34 -20 186.68 -20 186 C-20.66 185.67 -21.32 185.34 -22 185 C-25.35201221 176.89930382 -27.42927638 168.47977556 -29.41210938 159.9609375 C-30.23372274 156.56973652 -31.17494681 153.47696271 -32.6484375 150.30859375 C-33.99233731 147.01875809 -34.26773824 145.49118052 -33.6875 142.0625 C-33.56761719 141.29035156 -33.44773438 140.51820313 -33.32421875 139.72265625 C-33.21722656 139.15417969 -33.11023438 138.58570313 -33 138 C-34.03898437 138.02320313 -35.07796875 138.04640625 -36.1484375 138.0703125 C-37.55728437 138.08909712 -38.96613916 138.10729439 -40.375 138.125 C-41.05433594 138.14175781 -41.73367187 138.15851563 -42.43359375 138.17578125 C-48.16452702 138.22934137 -53.42602305 137.27136896 -59 136 C-60.28656494 135.71842041 -60.28656494 135.71842041 -61.59912109 135.43115234 C-64.23729526 134.84745938 -66.86874888 134.23908815 -69.5 133.625 C-70.37269531 133.4290625 -71.24539062 133.233125 -72.14453125 133.03125 C-78.36202684 131.57589548 -84.13697396 129.52374617 -90 127 C-90 126.34 -90 125.68 -90 125 C-90.66 125 -91.32 125 -92 125 C-92 124.01 -92 123.02 -92 122 C-92.66 121.67 -93.32 121.34 -94 121 C-93.505 120.01 -93.505 120.01 -93 119 C-88.65192831 119.39527924 -84.8033643 119.96648713 -80.6875 121.4375 C-72.44658742 124.34103397 -62.55754482 126.73841434 -54 124 C-54 123.34 -54 122.68 -54 122 C-52.02 122 -50.04 122 -48 122 C-48 121.34 -48 120.68 -48 120 C-43.05 120 -38.1 120 -33 120 C-33.33 119.01 -33.66 118.02 -34 117 C-34.99 116.505 -34.99 116.505 -36 116 C-37.28317892 112.15046324 -37.06643637 109.05261865 -37 105 C-36.01 105 -35.02 105 -34 105 C-33.71125 104.360625 -33.4225 103.72125 -33.125 103.0625 C-32 101 -32 101 -30 100 C-29.61781233 98.34385343 -29.28604898 96.67542976 -29 95 C-28.67 94.34 -28.34 93.68 -28 93 C-27.34 93 -26.68 93 -26 93 C-25.62875 91.453125 -25.62875 91.453125 -25.25 89.875 C-24.18092524 86.06017208 -22.21123728 83.28119081 -20 80 C-19.64834775 78.33710205 -19.31909189 76.66945178 -19 75 C-17.94231853 71.61541929 -16.85445203 68.24511295 -15.72851562 64.8828125 C-14.50266003 61.0944541 -13.95056571 57.95474303 -14 54 C-13.34 53.01 -12.68 52.02 -12 51 C-11.34837929 48.64176351 -11.34837929 48.64176351 -10.88671875 45.9765625 C-10.69311768 44.9649707 -10.4995166 43.95337891 -10.30004883 42.91113281 C-10.09790771 41.82670898 -9.8957666 40.74228516 -9.6875 39.625 C-8.04665402 31.127872 -6.31475589 22.66985847 -4.3125 14.25 C-4.11035889 13.38842285 -3.90821777 12.5268457 -3.69995117 11.63916016 C-2.73072723 7.61464226 -1.69004218 3.79680709 0 0 Z " fill="#0E0B0A" transform="translate(187,69)"/>
<path d="M0 0 C4.62537113 0.11254612 9.25028394 0.23831825 13.875 0.375 C14.90042404 0.40518219 14.90042404 0.40518219 15.94656372 0.43597412 C24.85017883 0.7088427 33.68046857 1.1373725 42.50537109 2.42724609 C45.82332937 2.88851707 48.44810533 2.93248361 51.78515625 2.4296875 C55 2 55 2 58 4 C55.69 4.66 53.38 5.32 51 6 C51.33837891 7.24136719 51.33837891 7.24136719 51.68359375 8.5078125 C52.08137393 12.89812712 50.81101463 15.95216666 49.0625 19.875 C48.74764648 20.60879883 48.43279297 21.34259766 48.10839844 22.09863281 C39.44383546 41.98716354 39.44383546 41.98716354 34 50 C33.34 50 32.68 50 32 50 C31.896875 50.598125 31.79375 51.19625 31.6875 51.8125 C30.90175967 54.31258286 30.03081147 55.37535082 28 57 C27.34 57 26.68 57 26 57 C26 57.66 26 58.32 26 59 C26.66 59 27.32 59 28 59 C28 59.66 28 60.32 28 61 C28.66 61 29.32 61 30 61 C30.33 61.99 30.66 62.98 31 64 C26.95858806 64.63394697 23.0934693 65.12404452 19 65 C18.67 64.34 18.34 63.68 18 63 C16.25728062 65.297221 14.60088848 67.59866729 13 70 C12.79913557 66.28400809 12.8480563 65.22791555 15 62 C15.66 62 16.32 62 17 62 C17.50842914 56.66149403 16.1038076 54.26773545 13 50 C13 49.34 13 48.68 13 48 C12.34 47.67 11.68 47.34 11 47 C7.64798779 38.89930382 5.57072362 30.47977556 3.58789062 21.9609375 C2.75938528 18.54128994 1.87884721 15.75377724 0.30859375 12.5625 C-1.3567408 8.0288131 -0.87776186 4.66377085 0 0 Z " fill="#181311" transform="translate(154,207)"/>
<path d="M0 0 C0.66 0.99 1.32 1.98 2 3 C1.67 3.66 1.34 4.32 1 5 C0.34 5 -0.32 5 -1 5 C-0.814375 6.11375 -0.62875 7.2275 -0.4375 8.375 C0 12 0 12 -1 14 C-0.071875 14.1546875 -0.071875 14.1546875 0.875 14.3125 C3 15 3 15 5 18 C5.125 20.6875 5.125 20.6875 5 23 C3.865625 22.979375 2.73125 22.95875 1.5625 22.9375 C-1.81575674 22.58422523 -1.81575674 22.58422523 -3 24 C-5.67058851 24.14115161 -8.32432238 24.04247107 -11 24 C-11 23.34 -11 22.68 -11 22 C-11.99 22.495 -11.99 22.495 -13 23 C-13.33 25.31 -13.66 27.62 -14 30 C-9.38 30.66 -4.76 31.32 0 32 C0 32.99 0 33.98 0 35 C-6.95312249 36.73828062 -13.05920943 36.0862744 -19.91796875 34.55859375 C-23.07133156 33.98707172 -26.17676923 33.68079123 -29.36572266 33.39770508 C-39.40170293 32.48908478 -48.89512066 30.55243967 -58 26 C-58 25.34 -58 24.68 -58 24 C-58.66 24 -59.32 24 -60 24 C-60 23.01 -60 22.02 -60 21 C-60.66 20.67 -61.32 20.34 -62 20 C-61.67 19.34 -61.34 18.68 -61 18 C-56.65192831 18.39527924 -52.8033643 18.96648713 -48.6875 20.4375 C-40.44658742 23.34103397 -30.55754482 25.73841434 -22 23 C-22 22.34 -22 21.68 -22 21 C-20.02 21 -18.04 21 -16 21 C-16 20.34 -16 19.68 -16 19 C-11.05 19 -6.1 19 -1 19 C-1.495 17.515 -1.495 17.515 -2 16 C-2.66 15.67 -3.32 15.34 -4 15 C-5.28317892 11.15046324 -5.06643637 8.05261865 -5 4 C-4.01 4 -3.02 4 -2 4 C-1.34 2.68 -0.68 1.36 0 0 Z " fill="#120B06" transform="translate(155,170)"/>
<path d="M0 0 C0.66 0 1.32 0 2 0 C1.896875 0.928125 1.79375 1.85625 1.6875 2.8125 C1.790625 3.864375 1.89375 4.91625 2 6 C4.02015833 7.66829691 4.02015833 7.66829691 7 9 C8.48896815 9.98534657 9.96735104 10.98678923 11.4375 12 C14.85148524 14.29492518 18.2808619 16.22898186 22 18 C22.99 18.66 23.98 19.32 25 20 C25 20.99 25 21.98 25 23 C26.98 23 28.96 23 31 23 C31 23.99 31 24.98 31 26 C33.31 26.33 35.62 26.66 38 27 C38 27.66 38 28.32 38 29 C40.31 29.33 42.62 29.66 45 30 C45 30.33 45 30.66 45 31 C19.53731343 31.26865672 19.53731343 31.26865672 15 29 C13.33380554 28.9603287 11.66608987 28.95615553 10 29 C10 28.01 10 27.02 10 26 C9.01 26 8.02 26 7 26 C6.566875 25.525625 6.13375 25.05125 5.6875 24.5625 C3.3293094 22.37899018 1.12597439 22.34733049 -2 22 C-2 21.34 -2 20.68 -2 20 C-1.01 20 -0.02 20 1 20 C1 18.02 1 16.04 1 14 C1.66 13.67 2.32 13.34 3 13 C2.505 12.21625 2.01 11.4325 1.5 10.625 C0 8 0 8 0 6 C-0.66 6 -1.32 6 -2 6 C-2 5.34 -2 4.68 -2 4 C-1.34 4 -0.68 4 0 4 C0 2.68 0 1.36 0 0 Z " fill="#464137" transform="translate(209,171)"/>
<path d="M0 0 C0.99 0.66 1.98 1.32 3 2 C-0.75 5 -0.75 5 -3 5 C-2.505 7.97 -2.505 7.97 -2 11 C-4.64 11 -7.28 11 -10 11 C-10.33 13.31 -10.66 15.62 -11 18 C-11.99 18.33 -12.98 18.66 -14 19 C-16.43656728 21.04671652 -17.81705128 23.05309677 -19 26 C-18.98990522 28.39954749 -18.98990522 28.39954749 -18.5625 30.875 C-18.06009518 34.82413554 -18.07265184 38.08452997 -19 42 C-20.485 41.505 -20.485 41.505 -22 41 C-22 41.66 -22 42.32 -22 43 C-22.825 43.474375 -23.65 43.94875 -24.5 44.4375 C-25.325 44.953125 -26.15 45.46875 -27 46 C-27.03721008 50.09510815 -27.03721008 50.09510815 -26 54 C-22.52692672 55.86983745 -22.52692672 55.86983745 -19 57 C-19 57.33 -19 57.66 -19 58 C-28.73995772 58.57293869 -28.73995772 58.57293869 -33 55 C-33 54.34 -33 53.68 -33 53 C-34.65 52.67 -36.3 52.34 -38 52 C-37.67 51.34 -37.34 50.68 -37 50 C-36.34 50 -35.68 50 -35 50 C-34.34 48.02 -33.68 46.04 -33 44 C-32.34 44 -31.68 44 -31 44 C-30.74476563 43.31164062 -30.48953125 42.62328125 -30.2265625 41.9140625 C-28.32830831 37.40419745 -25.85156715 33.22504019 -23.4609375 28.9609375 C-21.77876251 26.10189963 -21.77876251 26.10189963 -22 23 C-21.34 23 -20.68 23 -20 23 C-19.82984375 22.3709375 -19.6596875 21.741875 -19.484375 21.09375 C-15.30907998 6.34696332 -15.30907998 6.34696332 -10.75 3.6875 C-9.8425 3.460625 -8.935 3.23375 -8 3 C-5.95279547 2.1369628 -3.90964567 1.26482889 -1.8671875 0.390625 C-1.25101563 0.26171875 -0.63484375 0.1328125 0 0 Z " fill="#DBC8A6" transform="translate(219,213)"/>
<path d="M0 0 C0.495 4.95 0.495 4.95 1 10 C1.99 10.33 2.98 10.66 4 11 C4 11.99 4 12.98 4 14 C-0.95 14 -5.9 14 -11 14 C-11 14.66 -11 15.32 -11 16 C-12.98 16 -14.96 16 -17 16 C-17 16.66 -17 17.32 -17 18 C-23.58422536 22.21390423 -31.8650632 19.44505049 -39 18 C-39 17.01 -39 16.02 -39 15 C-37.35 15 -35.7 15 -34 15 C-34 14.34 -34 13.68 -34 13 C-32.43883181 12.66048381 -30.87598662 12.32867456 -29.3125 12 C-28.44238281 11.814375 -27.57226562 11.62875 -26.67578125 11.4375 C-24.05861176 11.00958324 -21.644827 11 -19 11 C-16.65269935 10.38431458 -14.31543043 9.72640955 -12 9 C-12 8.34 -12 7.68 -12 7 C-10.5459375 6.62875 -10.5459375 6.62875 -9.0625 6.25 C-8.051875 5.8375 -7.04125 5.425 -6 5 C-5.18553891 2.99427359 -5.18553891 2.99427359 -5 1 C-3 0 -3 0 0 0 Z " fill="#5C5346" transform="translate(150,175)"/>
<path d="M0 0 C5.07842049 4.67749256 6.81520217 8.57879334 8.21875 15.23046875 C8.42886719 16.19791016 8.63898438 17.16535156 8.85546875 18.16210938 C9.28754473 20.19024784 9.71720655 22.21890201 10.14453125 24.24804688 C10.45970703 25.6934082 10.45970703 25.6934082 10.78125 27.16796875 C10.96751953 28.04735107 11.15378906 28.9267334 11.34570312 29.83276367 C11.8694478 32.18448918 11.8694478 32.18448918 14 34 C14.2475 35.010625 14.495 36.02125 14.75 37.0625 C15.84643739 41.34040325 18.20360143 44.53180007 20.7578125 48.08203125 C22 50 22 50 22 52 C21.01 52 20.02 52 19 52 C19 52.66 19 53.32 19 54 C18.01 54 17.02 54 16 54 C16 54.66 16 55.32 16 56 C14.02 55.67 12.04 55.34 10 55 C8.49056604 48.01886792 8.49056604 48.01886792 10 45 C9.34 45 8.68 45 8 45 C8 44.34 8 43.68 8 43 C8.99 43 9.98 43 11 43 C10.505 41.515 10.505 41.515 10 40 C10 39.34 10 38.68 10 38 C9.62875 37.443125 9.2575 36.88625 8.875 36.3125 C7.55975182 32.83648695 8.81996542 30.40898877 10 27 C7.69 26.67 5.38 26.34 3 26 C3.309375 25.195625 3.309375 25.195625 3.625 24.375 C4.21011159 21.93566719 4.21011159 21.93566719 3.0625 19.5 C1.74018783 15.14414813 1.94100614 11.3240368 2.125 6.8046875 C1.99765647 3.94741697 1.47705651 2.41175634 0 0 Z " fill="#D4C4A4" transform="translate(150,213)"/>
<path d="M0 0 C0.99 0 1.98 0 3 0 C3 0.66 3 1.32 3 2 C3.66 2 4.32 2 5 2 C5 3.32 5 4.64 5 6 C4.34 6 3.68 6 3 6 C3 6.66 3 7.32 3 8 C3.66 8.33 4.32 8.66 5 9 C5.36300778 15.29213483 5.36300778 15.29213483 3.75 18.4375 C2 20 2 20 -2 20 C-2.495 22.475 -2.495 22.475 -3 25 C-4.65 25.33 -6.3 25.66 -8 26 C-8 26.66 -8 27.32 -8 28 C-9.11375 27.67 -10.2275 27.34 -11.375 27 C-19.08152699 25.23779898 -27.14651309 25.84750511 -35 26 C-35 25.34 -35 24.68 -35 24 C-37.97 24.66 -40.94 25.32 -44 26 C-43.67 24.68 -43.34 23.36 -43 22 C-41.26943359 22.02900391 -41.26943359 22.02900391 -39.50390625 22.05859375 C-35.25269785 22.05765798 -31.1445957 21.6378642 -26.9375 21.0625 C-26.26912109 20.97548828 -25.60074219 20.88847656 -24.91210938 20.79882812 C-21.69863026 20.37723466 -18.48967458 19.92709637 -15.28125 19.46875 C-12.71009233 19.10144176 -10.14021484 18.75406147 -7.5625 18.4375 C-5.7990625 18.2209375 -5.7990625 18.2209375 -4 18 C-4 17.34 -4 16.68 -4 16 C-2.02 15.67 -0.04 15.34 2 15 C1.77815146 10.10297863 1.77815146 10.10297863 -0.8125 6.1875 C-2.85718795 5.07752654 -4.88955838 3.97984789 -7 3 C-7 2.67 -7 2.34 -7 2 C-5.02 2 -3.04 2 -1 2 C-0.67 1.34 -0.34 0.68 0 0 Z " fill="#D4C3A5" transform="translate(267,190)"/>
<path d="M0 0 C0.495 0.99 0.495 0.99 1 2 C0 4 0 4 -1.84765625 4.6328125 C-2.57855469 4.79523438 -3.30945313 4.95765625 -4.0625 5.125 C-4.79597656 5.29257813 -5.52945313 5.46015625 -6.28515625 5.6328125 C-6.85105469 5.75398437 -7.41695312 5.87515625 -8 6 C-8.103125 6.61875 -8.20625 7.2375 -8.3125 7.875 C-9 10 -9 10 -12 12 C-12.99 12 -13.98 12 -15 12 C-15 12.66 -15 13.32 -15 14 C-15.66 14 -16.32 14 -17 14 C-17.33 14.66 -17.66 15.32 -18 16 C-21.0151108 16.43073011 -23.96935499 16.74819567 -27 17 C-28.85442488 17.1849288 -30.70860254 17.37235667 -32.5625 17.5625 C-34.04161704 17.70883578 -35.52076554 17.85485591 -37 18 C-37 18.66 -37 19.32 -37 20 C-38.65 20 -40.3 20 -42 20 C-42.33 20.66 -42.66 21.32 -43 22 C-46.96 21.01 -50.92 20.02 -55 19 C-54.34 18.67 -53.68 18.34 -53 18 C-53 17.34 -53 16.68 -53 16 C-33.9375 11.625 -33.9375 11.625 -27 12 C-27 11.34 -27 10.68 -27 10 C-25.865625 9.814375 -24.73125 9.62875 -23.5625 9.4375 C-18.47682282 8.32730402 -13.79372101 6.42223178 -9 4.4375 C-7.85059937 3.96171509 -7.85059937 3.96171509 -6.67797852 3.47631836 C-3.07999375 2.1570145 -3.07999375 2.1570145 0 0 Z " fill="#F9F2D0" transform="translate(153,170)"/>
<path d="M0 0 C26.4 0 52.8 0 80 0 C80 0.66 80 1.32 80 2 C77.03 2 74.06 2 71 2 C71 2.66 71 3.32 71 4 C65.8469166 4.10306167 61.09231447 3.89115503 56 3 C55.67 3.33 55.34 3.66 55 4 C53.41924873 4.09952878 51.83387455 4.12968602 50.25 4.125 C49.38890625 4.12757813 48.5278125 4.13015625 47.640625 4.1328125 C45 4 45 4 42.65730286 3.49879456 C39.98101249 2.99643591 37.5625025 2.8795886 34.8425293 2.88647461 C33.84186935 2.88655014 32.84120941 2.88662567 31.81022644 2.88670349 C30.20840263 2.89444542 30.20840263 2.89444542 28.57421875 2.90234375 C26.92012749 2.90446617 26.92012749 2.90446617 25.23262024 2.90663147 C21.71755233 2.91221996 18.20254859 2.92477041 14.6875 2.9375 C12.30143321 2.94251648 9.91536543 2.94707913 7.52929688 2.95117188 C1.6861761 2.96218563 -4.15690737 2.97891236 -10 3 C-10 2.67 -10 2.34 -10 2 C-6.7 2 -3.4 2 0 2 C0 1.34 0 0.68 0 0 Z " fill="#60553F" transform="translate(216,0)"/>
<path d="M0 0 C1.58624235 0.42683239 3.1689098 0.86696158 4.75 1.3125 C6.07257813 1.67794922 6.07257813 1.67794922 7.421875 2.05078125 C10.07756903 3.02855951 11.81083991 4.23469857 14 6 C15.98077953 7.03755118 17.98529902 8.02995879 20 9 C21.16982422 9.60908203 21.16982422 9.60908203 22.36328125 10.23046875 C26.20640973 12.2190982 29.86037832 14.09806105 34.0625 15.1875 C35.031875 15.455625 36.00125 15.72375 37 16 C37.495 16.99 37.495 16.99 38 18 C39.65 18 41.3 18 43 18 C43 18.66 43 19.32 43 20 C43.94875 20.12375 44.8975 20.2475 45.875 20.375 C49 21 49 21 51 23 C43.63856502 26.32286996 43.63856502 26.32286996 39.62109375 25.53125 C37.4375 24.6875 37.4375 24.6875 34 23 C34 22.34 34 21.68 34 21 C31.69 20.67 29.38 20.34 27 20 C27 19.01 27 18.02 27 17 C25.02 17 23.04 17 21 17 C21 16.01 21 15.02 21 14 C20.38125 13.87625 19.7625 13.7525 19.125 13.625 C17 13 17 13 15 11 C13.22166928 10.03744322 11.42780342 9.10340147 9.625 8.1875 C5.46723267 5.96966081 2.53346221 4.10179595 0 0 Z " fill="#E8DBBC" transform="translate(213,177)"/>
<path d="M0 0 C0.66 0.33 1.32 0.66 2 1 C4.14026939 1.22379138 6.28636565 1.3928639 8.43359375 1.53515625 C9.72201172 1.62216797 11.01042969 1.70917969 12.33789062 1.79882812 C13.70442684 1.88672248 15.0709633 1.97461306 16.4375 2.0625 C17.80015513 2.15392621 19.16278573 2.24571875 20.52539062 2.33789062 C29.32689534 3.14996626 29.32689534 3.14996626 38 2.0625 C38.680625 1.88847656 39.36125 1.71445313 40.0625 1.53515625 C41.72384102 1.07627778 43.36489722 0.54503426 45 0 C46 2 46 2 45.8125 4 C45 6 45 6 43.0625 7.3125 C42.0415625 7.6528125 42.0415625 7.6528125 41 8 C40.34 7.67 39.68 7.34 39 7 C39 7.66 39 8.32 39 9 C31.09004162 11.08917506 23.49411637 12.368114 15.32421875 12.81640625 C10.86606922 13.06262602 6.4379912 13.51938805 2 14 C1.67 13.34 1.34 12.68 1 12 C6.75904969 10.85228903 12.12106431 10 18 10 C21.91165651 9.07181032 24.64737219 8.23508521 28 6 C25.297553 4.6487765 23.2089648 4.90461828 20.1875 4.9375 C19.02992188 4.94523438 17.87234375 4.95296875 16.6796875 4.9609375 C15.46539062 4.97382813 14.25109375 4.98671875 13 5 C10.60421108 5.025433 8.20837043 5.04649196 5.8125 5.0625 C4.74644531 5.07410156 3.68039063 5.08570313 2.58203125 5.09765625 C0 5 0 5 -2 4 C-2 3.01 -2 2.02 -2 1 C-1.34 0.67 -0.68 0.34 0 0 Z " fill="#1F120B" transform="translate(224,199)"/>
<path d="M0 0 C0.66 0.99 1.32 1.98 2 3 C1.67 3.66 1.34 4.32 1 5 C0.34 5 -0.32 5 -1 5 C-0.814375 6.11375 -0.62875 7.2275 -0.4375 8.375 C0 12 0 12 -1 14 C-0.38125 14.103125 0.2375 14.20625 0.875 14.3125 C3 15 3 15 5 18 C5.125 20.6875 5.125 20.6875 5 23 C3.865625 22.979375 2.73125 22.95875 1.5625 22.9375 C-1.81575674 22.58422523 -1.81575674 22.58422523 -3 24 C-5.67058851 24.14115161 -8.32432238 24.04247107 -11 24 C-11 23.34 -11 22.68 -11 22 C-11.39832031 22.49113281 -11.79664063 22.98226562 -12.20703125 23.48828125 C-14.5121755 25.43183425 -15.7196719 25.316536 -18.6875 25.1875 C-19.49574219 25.16042969 -20.30398437 25.13335937 -21.13671875 25.10546875 C-21.75160156 25.07066406 -22.36648437 25.03585938 -23 25 C-23 25.66 -23 26.32 -23 27 C-23.66 27 -24.32 27 -25 27 C-25.33 26.01 -25.66 25.02 -26 24 C-24.68 23.67 -23.36 23.34 -22 23 C-22 22.34 -22 21.68 -22 21 C-20.02 21 -18.04 21 -16 21 C-16 20.34 -16 19.68 -16 19 C-11.05 19 -6.1 19 -1 19 C-1.33 18.01 -1.66 17.02 -2 16 C-2.66 15.67 -3.32 15.34 -4 15 C-5.28317892 11.15046324 -5.06643637 8.05261865 -5 4 C-4.01 4 -3.02 4 -2 4 C-1.34 2.68 -0.68 1.36 0 0 Z " fill="#393228" transform="translate(155,170)"/>
<path d="M0 0 C-1 2 -1 2 -2.890625 2.8515625 C-10.71069182 5.41509434 -10.71069182 5.41509434 -15 5 C-15 5.66 -15 6.32 -15 7 C-32.85649203 10.25968109 -32.85649203 10.25968109 -41 11 C-41 11.66 -41 12.32 -41 13 C-43.31 13 -45.62 13 -48 13 C-48 12.34 -48 11.68 -48 11 C-47.34 11 -46.68 11 -46 11 C-45.67 10.01 -45.34 9.02 -45 8 C-38.16578889 4.91818455 -30.0120435 4.27972052 -22.64599609 3.13378906 C-17.3731904 2.29485775 -12.34331216 1.12244071 -7.26171875 -0.546875 C-4.57042434 -1.08606352 -2.63422683 -0.69002756 0 0 Z " fill="#82724F" transform="translate(141,175)"/>
<path d="M0 0 C21.12 0 42.24 0 64 0 C63.67 0.99 63.34 1.98 63 3 C58.78247482 3.02473064 54.56498814 3.04287453 50.34741211 3.05493164 C48.91283432 3.05995842 47.47826164 3.06678079 46.04370117 3.07543945 C43.98094418 3.08757752 41.91825496 3.09324486 39.85546875 3.09765625 C38.61434326 3.10289307 37.37321777 3.10812988 36.09448242 3.11352539 C33 3 33 3 30 2 C29.67 2.33 29.34 2.66 29 3 C26.85441173 3.08775605 24.70595579 3.10695219 22.55859375 3.09765625 C21.25341797 3.09443359 19.94824219 3.09121094 18.60351562 3.08789062 C17.2148431 3.07953401 15.82617123 3.07106905 14.4375 3.0625 C13.04492344 3.05748666 11.65234519 3.05292347 10.25976562 3.04882812 C6.8398013 3.03699434 3.41992156 3.0205088 0 3 C0 2.01 0 1.02 0 0 Z " fill="#735E3F" transform="translate(111,0)"/>
<path d="M0 0 C5.91262501 0.53751136 11.55868519 1.51152124 17 4 C17.33 4.66 17.66 5.32 18 6 C17.01 6.495 17.01 6.495 16 7 C19.25397508 9.25885324 19.25397508 9.25885324 23 10 C23.33 9.34 23.66 8.68 24 8 C24.33 9.65 24.66 11.3 25 13 C27.475 13.495 27.475 13.495 30 14 C25.9213664 15.64410037 22.24609419 14.32929375 18.1875 13.25 C17.50107422 13.07984375 16.81464844 12.9096875 16.10742188 12.734375 C11.51543581 11.55270971 7.31549797 9.96312849 3 8 C3 7.34 3 6.68 3 6 C2.34 6 1.68 6 1 6 C1 5.01 1 4.02 1 3 C0.34 2.67 -0.32 2.34 -1 2 C-0.67 1.34 -0.34 0.68 0 0 Z " fill="#100905" transform="translate(94,188)"/>
<path d="M0 0 C0.928125 0.70125 1.85625 1.4025 2.8125 2.125 C6.85574445 5.02720614 11.15337059 7.34235678 15.546875 9.66796875 C18 11 18 11 21 13 C21 13.99 21 14.98 21 16 C22.98 16 24.96 16 27 16 C27 16.99 27 17.98 27 19 C29.31 19.33 31.62 19.66 34 20 C34 20.66 34 21.32 34 22 C34.66 22.33 35.32 22.66 36 23 C34.54176788 23.0270043 33.08339325 23.04639787 31.625 23.0625 C30.81289062 23.07410156 30.00078125 23.08570313 29.1640625 23.09765625 C27 23 27 23 25 22 C24.67 21.01 24.34 20.02 24 19 C22.35 18.67 20.7 18.34 19 18 C19 17.34 19 16.68 19 16 C15.04 16 11.08 16 7 16 C6.7525 14.96875 6.505 13.9375 6.25 12.875 C5.17801292 9.0652042 3.27967563 6.23566863 1 3 C0.67 2.01 0.34 1.02 0 0 Z " fill="#A69880" transform="translate(213,178)"/>
<path d="M0 0 C1.05743408 0.25692627 1.05743408 0.25692627 2.13623047 0.51904297 C5.38199032 1.3064255 8.62848674 2.09072994 11.875 2.875 C12.98359375 3.14441406 14.0921875 3.41382813 15.234375 3.69140625 C21.19415298 5.12876447 27.12908602 6.46003001 33.17626953 7.47705078 C33.77810059 7.64962402 34.37993164 7.82219727 35 8 C35.495 8.99 35.495 8.99 36 10 C33.91695462 10.05418326 31.83350232 10.09287551 29.75 10.125 C28.00976562 10.15980469 28.00976562 10.15980469 26.234375 10.1953125 C23.17213954 10.0103949 21.55797249 9.60823023 19 8 C19 8.66 19 9.32 19 10 C18.34 10 17.68 10 17 10 C17 9.34 17 8.68 17 8 C16.34 8 15.68 8 15 8 C15 8.66 15 9.32 15 10 C10.71 10 6.42 10 2 10 C1 5 1 5 1 3 C0.67 2.01 0.34 1.02 0 0 Z " fill="#D2C3A6" transform="translate(103,198)"/>
<path d="M0 0 C10.6431489 0.26975723 20.70532422 3.92160468 30 9 C31.875 11.1875 31.875 11.1875 33 13 C29.16674383 15.70582788 26.67461851 16.32613618 22 16 C21.67 16.66 21.34 17.32 21 18 C21 17.01 21 16.02 21 15 C22.32 14.34 23.64 13.68 25 13 C23.35 12.34 21.7 11.68 20 11 C20 10.34 20 9.68 20 9 C18.35 9.33 16.7 9.66 15 10 C14.67 9.01 14.34 8.02 14 7 C12.05398946 6.37777113 12.05398946 6.37777113 9.75 6.125 C4.95990021 5.23879334 3.04565467 3.73338314 0 0 Z " fill="#7C6B47" transform="translate(236,186)"/>
<path d="M0 0 C3.84330191 1.11028722 6.35602308 1.97831209 9 5 C9.99 5.66 10.98 6.32 12 7 C12 7.66 12 8.32 12 9 C12.556875 9.12375 13.11375 9.2475 13.6875 9.375 C16.22114364 10.05976855 18.57921032 10.99133763 21 12 C21 12.66 21 13.32 21 14 C21.66 14.66 22.32 15.32 23 16 C22.67 16.66 22.34 17.32 22 18 C22.99 18.33 23.98 18.66 25 19 C24.01 19 23.02 19 22 19 C22 19.99 22 20.98 22 22 C21.34 22 20.68 22 20 22 C20 21.34 20 20.68 20 20 C18.02 20 16.04 20 14 20 C13.79375 19.4225 13.5875 18.845 13.375 18.25 C12.07777095 15.72751731 12.07777095 15.72751731 9 14.25 C4.88534658 11.16400993 4.82817537 8.96905223 4 4 C3.34 4 2.68 4 2 4 C2 3.34 2 2.68 2 2 C1.34 2 0.68 2 0 2 C0 1.34 0 0.68 0 0 Z " fill="#8B8067" transform="translate(180,264)"/>
<path d="M0 0 C5.28 0.33 10.56 0.66 16 1 C16 1.66 16 2.32 16 3 C13.69 3.33 11.38 3.66 9 4 C8.87625 4.53625 8.7525 5.0725 8.625 5.625 C8.17048393 7.35216105 7.63878427 9.05956615 7.0625 10.75 C5.8464339 14.4697316 4.91813017 18.19631788 4 22 C3.67 22 3.34 22 3 22 C2.52613621 20.30762931 2.05275393 18.61512206 1.58203125 16.921875 C0.97750202 14.81315351 0.97750202 14.81315351 -0.1875 12.125 C-1.31331556 7.79494014 -0.66851173 4.41217743 0 0 Z " fill="#433827" transform="translate(154,207)"/>
<path d="M0 0 C0 0.66 0 1.32 0 2 C-0.66 2 -1.32 2 -2 2 C-2 2.66 -2 3.32 -2 4 C-4.64 4.33 -7.28 4.66 -10 5 C-10 5.66 -10 6.32 -10 7 C-11.65 7 -13.3 7 -15 7 C-15.33 7.66 -15.66 8.32 -16 9 C-21.94 7.515 -21.94 7.515 -28 6 C-27.34 5.67 -26.68 5.34 -26 5 C-26 4.34 -26 3.68 -26 3 C-23.00343431 2.31226361 -20.00580892 1.64533938 -17 1 C-16.06414062 0.79761719 -15.12828125 0.59523437 -14.1640625 0.38671875 C-9.15246096 -0.62246676 -5.04759504 -1.36421487 0 0 Z " fill="#EBE0C8" transform="translate(126,183)"/>
<path d="M0 0 C0 0.66 0 1.32 0 2 C-0.66 2.33 -1.32 2.66 -2 3 C-2.33 3.99 -2.66 4.98 -3 6 C-3.66 6 -4.32 6 -5 6 C-4.505 8.475 -4.505 8.475 -4 11 C-7.21451269 12.60725635 -10.43612536 12.05748185 -14 12 C-14 12.66 -14 13.32 -14 14 C-21.42857143 15.28571429 -21.42857143 15.28571429 -25 14 C-25 14.66 -25 15.32 -25 16 C-28.3 16 -31.6 16 -35 16 C-35 16.66 -35 17.32 -35 18 C-35.99 18 -36.98 18 -38 18 C-38 17.01 -38 16.02 -38 15 C-36.35 15 -34.7 15 -33 15 C-33 14.34 -33 13.68 -33 13 C-31.43883181 12.66048381 -29.87598662 12.32867456 -28.3125 12 C-27.44238281 11.814375 -26.57226562 11.62875 -25.67578125 11.4375 C-23.05861176 11.00958324 -20.644827 11 -18 11 C-15.65269935 10.38431458 -13.31543043 9.72640955 -11 9 C-11 8.34 -11 7.68 -11 7 C-9.5459375 6.62875 -9.5459375 6.62875 -8.0625 6.25 C-7.051875 5.8375 -6.04125 5.425 -5 5 C-4.18553891 2.99427359 -4.18553891 2.99427359 -4 1 C-2 0 -2 0 0 0 Z " fill="#9D937D" transform="translate(149,175)"/>
<path d="M0 0 C0.99 0.66 1.98 1.32 3 2 C-0.75 5 -0.75 5 -3 5 C-2.67 6.98 -2.34 8.96 -2 11 C-5.3 11 -8.6 11 -12 11 C-12.66 12.65 -13.32 14.3 -14 16 C-14.99 16 -15.98 16 -17 16 C-16.49292456 11.63915125 -15.71969631 8.4967524 -13 5 C-10.8125 3.875 -10.8125 3.875 -8 3 C-7.01193359 2.57847656 -7.01193359 2.57847656 -6.00390625 2.1484375 C-5.30136719 1.85195312 -4.59882813 1.55546875 -3.875 1.25 C-2.88113281 0.82460937 -2.88113281 0.82460937 -1.8671875 0.390625 C-1.25101563 0.26171875 -0.63484375 0.1328125 0 0 Z " fill="#D8CDA8" transform="translate(219,213)"/>
<path d="M0 0 C-0.33 1.32 -0.66 2.64 -1 4 C-1.66 3.67 -2.32 3.34 -3 3 C-3.33 3.66 -3.66 4.32 -4 5 C-4.33 4.34 -4.66 3.68 -5 3 C-7.02463255 2.34786708 -7.02463255 2.34786708 -9 2 C-9.66 3.32 -10.32 4.64 -11 6 C-15.95 6 -20.9 6 -26 6 C-26 5.34 -26 4.68 -26 4 C-28.97 4.66 -31.94 5.32 -35 6 C-34.67 4.68 -34.34 3.36 -34 2 C-32.96875 2.04125 -31.9375 2.0825 -30.875 2.125 C-26.91565654 2.13899061 -23.15864443 1.61532983 -19.25 1 C-12.77887424 0.00766754 -6.53496941 -0.21543855 0 0 Z " fill="#E4D3BB" transform="translate(258,210)"/>
<path d="M0 0 C0.33 0.66 0.66 1.32 1 2 C1.66 2.33 2.32 2.66 3 3 C2.01 3.33 1.02 3.66 0 4 C0 5.98 0 7.96 0 10 C-0.99 10 -1.98 10 -3 10 C-3 10.66 -3 11.32 -3 12 C-2.071875 11.95875 -1.14375 11.9175 -0.1875 11.875 C3 12 3 12 6 14 C6 14.66 6 15.32 6 16 C6.99 16 7.98 16 9 16 C9 16.99 9 17.98 9 19 C4.71 18.34 0.42 17.68 -4 17 C-4 15.68 -4 14.36 -4 13 C-5.32 13 -6.64 13 -8 13 C-8 12.34 -8 11.68 -8 11 C-8.66 10.67 -9.32 10.34 -10 10 C-7.3144406 7.3144406 -4.62378672 6.93950026 -1 6 C-0.67 4.02 -0.34 2.04 0 0 Z " fill="#2F2E26" transform="translate(210,181)"/>
<path d="M0 0 C0 2 0 2 -1.875 3.9375 C-5.44373941 6.29286801 -8.66973511 7.19614296 -12.79296875 8.19140625 C-15.3469452 8.88077003 -15.3469452 8.88077003 -17 12 C-19.31 11.67 -21.62 11.34 -24 11 C-24 10.01 -24 9.02 -24 8 C-23.05125 7.731875 -22.1025 7.46375 -21.125 7.1875 C-17.74732727 6.25013412 -17.74732727 6.25013412 -16 3 C-13.68970915 2.25740651 -11.354248 1.588562 -9 1 C-6.04335481 -0.4783226 -3.25770263 -0.06032783 0 0 Z " fill="#BAAC8B" transform="translate(160,268)"/>
<path d="M0 0 C2.60444348 -0.05394705 5.20776998 -0.09364469 7.8125 -0.125 C8.55048828 -0.14175781 9.28847656 -0.15851563 10.04882812 -0.17578125 C13.91246426 -0.21074628 15.70903668 -0.19397555 19 2 C13.77004951 6.38185041 8.75613277 7.05303087 2 7 C1.01 6.67 0.02 6.34 -1 6 C-0.67 4.02 -0.34 2.04 0 0 Z " fill="#0B0403" transform="translate(234,203)"/>
<path d="M0 0 C0 0.66 0 1.32 0 2 C3.3 2.33 6.6 2.66 10 3 C5.52656898 6.35507326 4.36920968 6.36375444 -1 6.25 C-2.216875 6.23453125 -3.43375 6.2190625 -4.6875 6.203125 C-7.31409984 6.04205992 -9.50411508 5.77372433 -12 5 C-12 4.34 -12 3.68 -12 3 C-13.32 2.67 -14.64 2.34 -16 2 C-13.04655319 0.03103546 -11.94214163 -0.33984715 -8.5625 -0.6875 C-7.41974609 -0.81705078 -7.41974609 -0.81705078 -6.25390625 -0.94921875 C-3.96788208 -1.00072363 -2.17903015 -0.66016176 0 0 Z " fill="#CABB96" transform="translate(220,271)"/>
<path d="M0 0 C2 2 2 2 2.125 5.125 C2.08375 6.07375 2.0425 7.0225 2 8 C1.34 8 0.68 8 0 8 C-0.33 9.65 -0.66 11.3 -1 13 C-1.66 13 -2.32 13 -3 13 C-2.67 14.65 -2.34 16.3 -2 18 C-1.01 18.33 -0.02 18.66 1 19 C0.67 21.31 0.34 23.62 0 26 C-0.28875 25.38125 -0.5775 24.7625 -0.875 24.125 C-1.93720042 21.86674235 -1.93720042 21.86674235 -4 20 C-4.88671875 17.390625 -4.88671875 17.390625 -5.6875 14.25 C-5.95949219 13.22390625 -6.23148438 12.1978125 -6.51171875 11.140625 C-7.0316482 7.79643877 -6.73272925 5.28498751 -6 2 C-3.525 2.99 -3.525 2.99 -1 4 C-0.67 2.68 -0.34 1.36 0 0 Z " fill="#281E14" transform="translate(165,225)"/>
<path d="M0 0 C3.3 0 6.6 0 10 0 C10 0.66 10 1.32 10 2 C11.65 2 13.3 2 15 2 C15.33 3.32 15.66 4.64 16 6 C21.28 6.33 26.56 6.66 32 7 C32 7.33 32 7.66 32 8 C29.2915983 8.02714434 26.58347279 8.04690846 23.875 8.0625 C22.73417969 8.07506836 22.73417969 8.07506836 21.5703125 8.08789062 C17.2610356 8.10646509 13.24483526 7.86117265 9 7 C9 6.34 9 5.68 9 5 C4.545 4.01 4.545 4.01 0 3 C0 2.01 0 1.02 0 0 Z " fill="#767162" transform="translate(222,194)"/>
<path d="M0 0 C7.92 0 15.84 0 24 0 C24 0.66 24 1.32 24 2 C25.98 2 27.96 2 30 2 C30 2.33 30 2.66 30 3 C16.8 3 3.6 3 -10 3 C-10 2.67 -10 2.34 -10 2 C-6.7 2 -3.4 2 0 2 C0 1.34 0 0.68 0 0 Z " fill="#6D5D42" transform="translate(216,0)"/>
<path d="M0 0 C0.495 0.99 0.495 0.99 1 2 C1.66 2.33 2.32 2.66 3 3 C3 4.32 3 5.64 3 7 C4.98 7 6.96 7 9 7 C9 7.33 9 7.66 9 8 C5.0527047 7.90530187 1.10589721 7.79897764 -2.84082031 7.68261719 C-4.8312213 7.62624001 -6.8218649 7.57864607 -8.8125 7.53125 C-26.58563894 6.99267003 -26.58563894 6.99267003 -34 3 C-29.19133768 2.81505145 -24.86391218 3.13058717 -20.125 4 C-12.08813135 5.48188262 -12.08813135 5.48188262 -4 5 C-1.32181017 2.70142894 -1.32181017 2.70142894 0 0 Z " fill="#2B231A" transform="translate(158,200)"/>
<path d="M0 0 C-2.61941217 1.74627478 -4.03824877 2.38722388 -7 3 C-6.6596875 4.36125 -6.6596875 4.36125 -6.3125 5.75 C-6 9 -6 9 -7.4375 11.375 C-7.953125 11.91125 -8.46875 12.4475 -9 13 C-9 11.68 -9 10.36 -9 9 C-9.66 9 -10.32 9 -11 9 C-11 8.34 -11 7.68 -11 7 C-11.639375 6.7525 -12.27875 6.505 -12.9375 6.25 C-15 5 -15 5 -15.62890625 2.921875 C-15.75136719 2.28765625 -15.87382812 1.6534375 -16 1 C-5.62642369 -1.48063781 -5.62642369 -1.48063781 0 0 Z " fill="#6E6455" transform="translate(212,210)"/>
<path d="M0 0 C4.51617599 -0.07654536 8.59085217 -0.10228696 13 1 C13 1.66 13 2.32 13 3 C14.32 3.33 15.64 3.66 17 4 C16.67 4.33 16.34 4.66 16 5 C16.66 5.33 17.32 5.66 18 6 C18 6.66 18 7.32 18 8 C12.25 9.125 12.25 9.125 10 8 C9.34 7.01 8.68 6.02 8 5 C7.01 5.33 6.02 5.66 5 6 C2.3125 4.1875 2.3125 4.1875 0 2 C0 1.34 0 0.68 0 0 Z " fill="#090502" transform="translate(109,193)"/>
<path d="M0 0 C0.66 0.99 1.32 1.98 2 3 C1.67 3.66 1.34 4.32 1 5 C0.34 5 -0.32 5 -1 5 C-0.88590407 6.45922693 -0.75834456 7.91740598 -0.625 9.375 C-0.55539063 10.18710938 -0.48578125 10.99921875 -0.4140625 11.8359375 C-0.17107412 14.20334191 -0.17107412 14.20334191 2 16 C1.67 17.32 1.34 18.64 1 20 C-4.61 20 -10.22 20 -16 20 C-16 19.67 -16 19.34 -16 19 C-11.05 19 -6.1 19 -1 19 C-1.33 18.01 -1.66 17.02 -2 16 C-2.66 15.67 -3.32 15.34 -4 15 C-5.28317892 11.15046324 -5.06643637 8.05261865 -5 4 C-4.01 4 -3.02 4 -2 4 C-1.34 2.68 -0.68 1.36 0 0 Z " fill="#473F34" transform="translate(155,170)"/>
<path d="M0 0 C1.98 0 3.96 0 6 0 C5.53007317 2.39462715 5.054137 4.78782273 4.5703125 7.1796875 C4.20306115 8.99582087 3.84310272 10.81345204 3.4921875 12.6328125 C3.32976562 13.43460938 3.16734375 14.23640625 3 15.0625 C2.855625 15.79597656 2.71125 16.52945313 2.5625 17.28515625 C2.376875 17.85105469 2.19125 18.41695312 2 19 C1.34 19.33 0.68 19.66 0 20 C0 18.35 0 16.7 0 15 C-0.66 14.67 -1.32 14.34 -2 14 C-1.47731534 11.23723823 -0.89130413 8.6739124 0 6 C0.03920815 4.00038436 0.04443347 1.99950636 0 0 Z " fill="#AFA188" transform="translate(178,80)"/>
<path d="M0 0 C5.73209208 5.2795585 7.05981252 9.43588398 8.14453125 16.9140625 C8 19 8 19 6.51171875 20.7734375 C5.76341797 21.38058594 5.76341797 21.38058594 5 22 C4.34 21.67 3.68 21.34 3 21 C2.5859375 19.21484375 2.5859375 19.21484375 2.375 16.9375 C2.29894531 16.12796875 2.22289062 15.3184375 2.14453125 14.484375 C2.01178919 12.20264655 2.00669702 9.9711295 2.0625 7.6875 C2.00545994 4.32213669 1.82786004 2.74179006 0 0 Z " fill="#E4D4AE" transform="translate(150,213)"/>
<path d="M0 0 C4.07510438 -0.0247345 8.15017964 -0.04287637 12.2253418 -0.05493164 C13.61141725 -0.05995777 14.99748741 -0.06677966 16.38354492 -0.07543945 C18.37676715 -0.08758018 20.37002819 -0.09271021 22.36328125 -0.09765625 C23.56251221 -0.10289307 24.76174316 -0.10812988 25.99731445 -0.11352539 C29 0 29 0 32 1 C32 1.66 32 2.32 32 3 C21.28399677 3.12825004 10.687163 2.79585256 0 2 C0 1.34 0 0.68 0 0 Z " fill="#181315" transform="translate(168,202)"/>
<path d="M0 0 C1.32 0.33 2.64 0.66 4 1 C2.31326082 5.49797113 0.18326108 9.72886302 -2 14 C-4.9375 13.625 -4.9375 13.625 -8 13 C-8.33 12.34 -8.66 11.68 -9 11 C-8.34 10.67 -7.68 10.34 -7 10 C-6.566875 8.7625 -6.566875 8.7625 -6.125 7.5 C-5 5 -5 5 -2.875 4.1875 C-2.25625 4.125625 -1.6375 4.06375 -1 4 C-0.67 2.68 -0.34 1.36 0 0 Z " fill="#281F0F" transform="translate(194,236)"/>
<path d="M0 0 C2.92879371 0.62759865 5.36095629 1.58622659 8 3 C8 3.66 8 4.32 8 5 C10.475 5.99 10.475 5.99 13 7 C11 9 11 9 8.1796875 9.1953125 C7.08914062 9.17210937 5.99859375 9.14890625 4.875 9.125 C3.77929688 9.10695312 2.68359375 9.08890625 1.5546875 9.0703125 C0.71164063 9.04710937 -0.13140625 9.02390625 -1 9 C-0.835 8.2575 -0.67 7.515 -0.5 6.75 C0.11925696 3.80993422 0.11925696 3.80993422 0 0 Z " fill="#C9B393" transform="translate(89,191)"/>
<path d="M0 0 C0.33 0.66 0.66 1.32 1 2 C1.66 2 2.32 2 3 2 C3.56131481 8.45512034 1.63463787 13.15439723 -1 19 C-3.31 18.67 -5.62 18.34 -8 18 C-6.4570989 15.29992307 -4.98637857 12.98517668 -2.875 10.6875 C-0.34116219 7.05566581 -0.29725093 4.3844512 0 0 Z " fill="#312A19" transform="translate(200,217)"/>
<path d="M0 0 C9.22379914 1.31768559 16.85855714 5.70451481 25 10 C24.01 11.485 24.01 11.485 23 13 C19.89170299 12.36437072 17.54056116 11.29253416 14.8125 9.6875 C10.90178845 7.43705737 6.94765107 5.63918254 2.75 3.9921875 C1 3 1 3 0 0 Z " fill="#9E8D6C" transform="translate(214,175)"/>
<path d="M0 0 C3.4375 1.3125 3.4375 1.3125 7 3 C7.33 3.99 7.66 4.98 8 6 C7.01 6 6.02 6 5 6 C5 6.66 5 7.32 5 8 C4.01 8 3.02 8 2 8 C2 8.66 2 9.32 2 10 C-0.97 9.505 -0.97 9.505 -4 9 C-3.67 6.36 -3.34 3.72 -3 1 C-2.01 1.33 -1.02 1.66 0 2 C0 1.34 0 0.68 0 0 Z " fill="#DED3B0" transform="translate(164,259)"/>
<path d="M0 0 C1.5159375 0.556875 1.5159375 0.556875 3.0625 1.125 C4.0525 1.455 5.0425 1.785 6.0625 2.125 C7.25 4.1875 7.25 4.1875 8.0625 6.125 C4.22924383 8.83082788 1.73711851 9.45113618 -2.9375 9.125 C-3.2675 9.785 -3.5975 10.445 -3.9375 11.125 C-3.9375 10.135 -3.9375 9.145 -3.9375 8.125 C-2.6175 7.465 -1.2975 6.805 0.0625 6.125 C-2.4125 5.135 -2.4125 5.135 -4.9375 4.125 C-4.9375 2.805 -4.9375 1.485 -4.9375 0.125 C-2.9375 -0.875 -2.9375 -0.875 0 0 Z " fill="#827356" transform="translate(260.9375,192.875)"/>
<path d="M0 0 C0.33 0 0.66 0 1 0 C1.18175781 0.87011719 1.18175781 0.87011719 1.3671875 1.7578125 C2.11015493 5.22118377 2.83264145 8.54714746 4.0625 11.875 C5.43891137 16.4630379 6.09034195 21.20434822 6 26 C5.34 26.99 4.68 27.98 4 29 C3.34 29 2.68 29 2 29 C2.04125 28.0925 2.0825 27.185 2.125 26.25 C2.13894803 22.79786142 1.62163414 19.58022152 1 16.1875 C0.0223547 10.72783295 -0.22035535 5.53336757 0 0 Z " fill="#9F9079" transform="translate(197,108)"/>
<path d="M0 0 C0.99 0.33 1.98 0.66 3 1 C2.34 1 1.68 1 1 1 C0.90203125 1.89203125 0.8040625 2.7840625 0.703125 3.703125 C0.55359375 4.87359375 0.4040625 6.0440625 0.25 7.25 C0.04117188 8.99023438 0.04117188 8.99023438 -0.171875 10.765625 C-1.08870483 14.34645095 -2.18335502 15.68714518 -5 18 C-7 15 -7 15 -6.86328125 12.87890625 C-4.94840295 4.82555283 -4.94840295 4.82555283 -2 2 C-1.34 2 -0.68 2 0 2 C0 1.34 0 0.68 0 0 Z " fill="#6D6156" transform="translate(168,268)"/>
<path d="M0 0 C0.33 1.32 0.66 2.64 1 4 C2.98 4 4.96 4 7 4 C7.33 3.01 7.66 2.02 8 1 C8.66 1.33 9.32 1.66 10 2 C10 2.66 10 3.32 10 4 C10.66 4 11.32 4 12 4 C12.33 4.99 12.66 5.98 13 7 C8.95858806 7.63394697 5.0934693 8.12404452 1 8 C0.67 7.34 0.34 6.68 0 6 C-1.74271938 8.297221 -3.39911152 10.59866729 -5 13 C-5.20086443 9.28400809 -5.1519437 8.22791555 -3 5 C-2.34 5 -1.68 5 -1 5 C-0.67 3.35 -0.34 1.7 0 0 Z " fill="#383125" transform="translate(172,264)"/>
<path d="M0 0 C2.97 0.33 5.94 0.66 9 1 C9 1.66 9 2.32 9 3 C9.94875 3.12375 10.8975 3.2475 11.875 3.375 C15 4 15 4 17 6 C12.70684321 7.77450481 9.24507236 9.13582608 4.5625 8.625 C2 7 2 7 0.625 3.375 C0.41875 2.26125 0.2125 1.1475 0 0 Z " fill="#F9F2D3" transform="translate(247,194)"/>
<path d="M0 0 C2.475 0.495 2.475 0.495 5 1 C3.37660195 2.70884005 1.70680947 4.37446717 0 6 C-0.66 6 -1.32 6 -2 6 C-2 6.66 -2 7.32 -2 8 C-2.61875 8.12375 -3.2375 8.2475 -3.875 8.375 C-6.19120832 8.87197356 -6.19120832 8.87197356 -8 11 C-10.1640625 11.1953125 -10.1640625 11.1953125 -12.625 11.125 C-13.44226563 11.10695313 -14.25953125 11.08890625 -15.1015625 11.0703125 C-15.72804687 11.04710937 -16.35453125 11.02390625 -17 11 C-14.6719682 7.50795229 -13.96526267 7.46279608 -10.0625 6.5 C-6.38589738 5.59032513 -4.5684014 4.76007315 -2 2 C-1.34 2 -0.68 2 0 2 C0 1.34 0 0.68 0 0 Z " fill="#AE9F7F" transform="translate(160,268)"/>
<path d="M0 0 C0.99 0 1.98 0 3 0 C3 0.66 3 1.32 3 2 C3.66 2 4.32 2 5 2 C5 3.32 5 4.64 5 6 C4.34 6 3.68 6 3 6 C3 6.66 3 7.32 3 8 C3.66 8.33 4.32 8.66 5 9 C5 11.31 5 13.62 5 16 C3.68 15.67 2.36 15.34 1 15 C1.268125 14.278125 1.53625 13.55625 1.8125 12.8125 C2.33498258 9.78809265 2.33498258 9.78809265 -0.1875 7.3125 C-2.46125188 5.44297067 -4.30017996 4.09992668 -7 3 C-7 2.67 -7 2.34 -7 2 C-5.02 2 -3.04 2 -1 2 C-0.67 1.34 -0.34 0.68 0 0 Z " fill="#D1C2A0" transform="translate(267,190)"/>
<path d="M0 0 C0.66 0.33 1.32 0.66 2 1 C1.67 2.32 1.34 3.64 1 5 C1.66 5 2.32 5 3 5 C3.33 7.31 3.66 9.62 4 12 C-0.75 11.125 -0.75 11.125 -3 10 C-3.8515625 7.93359375 -3.8515625 7.93359375 -4.625 5.4375 C-4.88539063 4.61121094 -5.14578125 3.78492188 -5.4140625 2.93359375 C-5.60742188 2.29550781 -5.80078125 1.65742188 -6 1 C-4.68 1 -3.36 1 -2 1 C-1.34 0.67 -0.68 0.34 0 0 Z " fill="#AD9F87" transform="translate(212,161)"/>
<path d="M0 0 C1.14662109 -0.00773438 1.14662109 -0.00773438 2.31640625 -0.015625 C4.4375 0.25 4.4375 0.25 7.4375 2.25 C5.87729133 2.90134925 4.31421421 3.54582964 2.75 4.1875 C1.87988281 4.54714844 1.00976562 4.90679687 0.11328125 5.27734375 C-2.44429265 6.2070312 -4.8846323 6.79162625 -7.5625 7.25 C-7.8925 5.6 -8.2225 3.95 -8.5625 2.25 C-5.58784237 0.54245166 -3.42389168 -0.02317355 0 0 Z " fill="#897E6D" transform="translate(213.5625,210.75)"/>
<path d="M0 0 C0.99 0 1.98 0 3 0 C2.67 0.99 2.34 1.98 2 3 C1.01 3 0.02 3 -1 3 C-1 3.66 -1 4.32 -1 5 C-1.66 5 -2.32 5 -3 5 C-3.226875 5.556875 -3.45375 6.11375 -3.6875 6.6875 C-6.84698492 12.25421153 -11.51601245 15.09671248 -17 18 C-15.63016497 14.83884224 -15.0109362 14.0072908 -12 12 C-11.67 11.01 -11.34 10.02 -11 9 C-10.34 9 -9.68 9 -9 9 C-8.731875 8.360625 -8.46375 7.72125 -8.1875 7.0625 C-7 5 -7 5 -4 4 C-3.67 3.34 -3.34 2.68 -3 2 C-2.01 2 -1.02 2 0 2 C0 1.34 0 0.68 0 0 Z " fill="#9C8F76" transform="translate(169,265)"/>
<path d="M0 0 C0 0.66 0 1.32 0 2 C-0.66 2 -1.32 2 -2 2 C-2 2.66 -2 3.32 -2 4 C-5.01490557 5.00496852 -7.04181692 5.10335303 -10.1875 5.0625 C-11.08855469 5.05347656 -11.98960938 5.04445312 -12.91796875 5.03515625 C-13.60503906 5.02355469 -14.29210937 5.01195312 -15 5 C-15.33 4.01 -15.66 3.02 -16 2 C-14.906875 1.690625 -13.81375 1.38125 -12.6875 1.0625 C-7.70871365 -0.37206556 -5.11308052 -1.0226161 0 0 Z " fill="#FBF2D5" transform="translate(126,183)"/>
<path d="M0 0 C0.66 0.33 1.32 0.66 2 1 C4.17550114 1.22372696 6.35672381 1.39282981 8.5390625 1.53515625 C9.84101563 1.62216797 11.14296875 1.70917969 12.484375 1.79882812 C13.86457745 1.88681112 15.24478587 1.97470053 16.625 2.0625 C18.01304676 2.15390401 19.40106802 2.24569609 20.7890625 2.33789062 C24.19247618 2.56242139 27.59610227 2.78295176 31 3 C27.43581471 5.37612352 25.877775 5.24563712 21.65234375 5.23046875 C20.40775391 5.22853516 19.16316406 5.22660156 17.88085938 5.22460938 C15.92889648 5.20624023 15.92889648 5.20624023 13.9375 5.1875 C12.63232422 5.18685547 11.32714844 5.18621094 9.98242188 5.18554688 C0.28056319 5.14028159 0.28056319 5.14028159 -2 4 C-2 3.01 -2 2.02 -2 1 C-1.34 0.67 -0.68 0.34 0 0 Z " fill="#24211C" transform="translate(224,199)"/>
<path d="M0 0 C0.66 0.33 1.32 0.66 2 1 C2 3.31 2 5.62 2 8 C1.01 8.33 0.02 8.66 -1 9 C-3.44441136 11.05330555 -4.68824318 13.11413501 -6 16 C-6.66666667 17.33333333 -7.33333333 18.66666667 -8 20 C-8.66 20 -9.32 20 -10 20 C-9.67 17.69 -9.34 15.38 -9 13 C-8.34 13 -7.68 13 -7 13 C-6.34 10.36 -5.68 7.72 -5 5 C-3.68 5.33 -2.36 5.66 -1 6 C-0.67 4.02 -0.34 2.04 0 0 Z " fill="#D5C69C" transform="translate(206,223)"/>
<path d="M0 0 C0.66 0.66 1.32 1.32 2 2 C1.875 4 1.875 4 1 6 C-0.9375 7.3125 -0.9375 7.3125 -3 8 C-3.66 7.67 -4.32 7.34 -5 7 C-5 7.66 -5 8.32 -5 9 C-6.65 8.67 -8.3 8.34 -10 8 C-10 6.35 -10 4.7 -10 3 C-6.97265625 2.26757812 -6.97265625 2.26757812 -3.9453125 1.53515625 C-1.9414343 1.05153008 -1.9414343 1.05153008 0 0 Z " fill="#1B0A04" transform="translate(268,199)"/>
<path d="M0 0 C6.20970773 -0.33266291 10.28264895 0.54970669 16 3 C16 3.66 16 4.32 16 5 C18.97 5.495 18.97 5.495 22 6 C16.27277038 7.91821088 9.40957416 6.29588981 3.8828125 4.1953125 C2.25 3.375 2.25 3.375 0 2 C0 1.34 0 0.68 0 0 Z " fill="#AEA081" transform="translate(192,271)"/>
<path d="M0 0 C0.61875 0.7115625 0.61875 0.7115625 1.25 1.4375 C3.182185 3.16266518 4.48192275 3.56584875 7 4 C7 4.66 7 5.32 7 6 C-1 8 -1 8 -3.203125 8.44140625 C-3.79609375 8.62574219 -4.3890625 8.81007812 -5 9 C-5.33 9.66 -5.66 10.32 -6 11 C-6.66 10.34 -7.32 9.68 -8 9 C-7.360625 8.05125 -6.72125 7.1025 -6.0625 6.125 C-4.07379437 3.24712173 -4.07379437 3.24712173 -3 1 C-2.01 0.67 -1.02 0.34 0 0 Z " fill="#BAA782" transform="translate(97,176)"/>
<path d="M0 0 C3.25993978 2.17329319 4.33237678 3.50593231 6 7 C6.1875 10.3125 6.1875 10.3125 6 13 C4.68 13 3.36 13 2 13 C2 12.34 2 11.68 2 11 C1.01 10.67 0.02 10.34 -1 10 C-0.67 6.7 -0.34 3.4 0 0 Z " fill="#666054" transform="translate(214,181)"/>
<path d="M0 0 C1.68076231 0.63028587 3.34795544 1.29788106 5 2 C5.66 2 6.32 2 7 2 C7.33 1.34 7.66 0.68 8 0 C8.33 1.65 8.66 3.3 9 5 C11.475 5.495 11.475 5.495 14 6 C9.6674997 7.33699892 6.21040798 6.32207053 1.9375 5.1875 C1.21755859 5.00896484 0.49761719 4.83042969 -0.24414062 4.64648438 C-3.60952333 3.78092169 -6.08440693 2.94372871 -9 1 C-7.88625 1.020625 -6.7725 1.04125 -5.625 1.0625 C-2.16784079 1.26380718 -2.16784079 1.26380718 0 0 Z " fill="#322C1E" transform="translate(110,196)"/>
<path d="M0 0 C8.12825112 4.19192825 8.12825112 4.19192825 10.265625 8.625 C10.97622889 11.07728008 11.56750938 13.48459481 12 16 C10.35 16 8.7 16 7 16 C6.7525 14.96875 6.505 13.9375 6.25 12.875 C5.17801292 9.0652042 3.27967563 6.23566863 1 3 C0.67 2.01 0.34 1.02 0 0 Z " fill="#9C9079" transform="translate(213,178)"/>
<path d="M0 0 C2.27141109 0.11402064 4.54214552 0.24158505 6.8125 0.375 C8.07707031 0.44460937 9.34164062 0.51421875 10.64453125 0.5859375 C14 1 14 1 17 3 C16.01 3 15.02 3 14 3 C14.66 4.32 15.32 5.64 16 7 C14.68 7.33 13.36 7.66 12 8 C11.67 7.34 11.34 6.68 11 6 C10.01 5.67 9.02 5.34 8 5 C8 4.34 8 3.68 8 3 C7.05125 3.020625 6.1025 3.04125 5.125 3.0625 C2 3 2 3 0 2 C0 1.34 0 0.68 0 0 Z " fill="#292420" transform="translate(182,208)"/>
<path d="M0 0 C-0.33 1.32 -0.66 2.64 -1 4 C-1.78375 4.103125 -2.5675 4.20625 -3.375 4.3125 C-6.33045181 4.77595022 -6.33045181 4.77595022 -8 8 C-8.99 8.495 -8.99 8.495 -10 9 C-10.66 8.67 -11.32 8.34 -12 8 C-12 6.68 -12 5.36 -12 4 C-10.68 3.67 -9.36 3.34 -8 3 C-8 2.34 -8 1.68 -8 1 C-5.10765685 0.17361624 -3.11257569 0 0 0 Z " fill="#DAC9B3" transform="translate(271,205)"/>
<path d="M0 0 C-1 2 -1 2 -2.890625 2.8515625 C-10.71069182 5.41509434 -10.71069182 5.41509434 -15 5 C-15.33 4.01 -15.66 3.02 -16 2 C-14.27507022 1.46530198 -12.544802 0.94780825 -10.8125 0.4375 C-9.36810547 0.00244141 -9.36810547 0.00244141 -7.89453125 -0.44140625 C-4.87247412 -1.02461026 -2.94070045 -0.81178385 0 0 Z " fill="#8B7F57" transform="translate(141,175)"/>
<path d="M0 0 C0.4125 0.45375 0.825 0.9075 1.25 1.375 C2.92669589 3.09686822 2.92669589 3.09686822 5.125 4 C7 5 7 5 8 8 C7.071875 7.649375 6.14375 7.29875 5.1875 6.9375 C2.0197047 5.67617372 2.0197047 5.67617372 -1 7 C-1.99 8.485 -1.99 8.485 -3 10 C-3.66 9.01 -4.32 8.02 -5 7 C-4.34 6.01 -3.68 5.02 -3 4 C-3.66 4 -4.32 4 -5 4 C-5 3.34 -5 2.68 -5 2 C-3.35 1.34 -1.7 0.68 0 0 Z " fill="#CEBC8D" transform="translate(163,254)"/>
<path d="M0 0 C3.1875 0.3125 3.1875 0.3125 6 1 C5.67 2.32 5.34 3.64 5 5 C8.465 4.505 8.465 4.505 12 4 C11.34 5.32 10.68 6.64 10 8 C5.14036821 7.39254603 1.2594482 5.27241033 -3 3 C-1.69921875 1.48046875 -1.69921875 1.48046875 0 0 Z " fill="#C6B38C" transform="translate(227,176)"/>
<path d="M0 0 C4.55384615 -0.36923077 4.55384615 -0.36923077 6.8125 1.5 C7.204375 1.995 7.59625 2.49 8 3 C4.25 6 4.25 6 2 6 C1.67 7.65 1.34 9.3 1 11 C0.34 10.34 -0.32 9.68 -1 9 C-0.9765625 6.8359375 -0.9765625 6.8359375 -0.625 4.375 C-0.51414063 3.55773437 -0.40328125 2.74046875 -0.2890625 1.8984375 C-0.19367188 1.27195313 -0.09828125 0.64546875 0 0 Z " fill="#6E6351" transform="translate(154,207)"/>
<path d="M0 0 C0.66 0.33 1.32 0.66 2 1 C1.79375 1.9075 1.5875 2.815 1.375 3.75 C0.67071632 7.25274747 0.67071632 7.25274747 3 11 C-1.95 11.33 -6.9 11.66 -12 12 C-12 11.34 -12 10.68 -12 10 C-8.7 9.67 -5.4 9.34 -2 9 C-2.33 7.35 -2.66 5.7 -3 4 C-2.34 4 -1.68 4 -1 4 C-0.67 2.68 -0.34 1.36 0 0 Z " fill="#786E5E" transform="translate(147,177)"/>
<path d="M0 0 C0.66 0 1.32 0 2 0 C2 0.66 2 1.32 2 2 C2.99 2 3.98 2 5 2 C5 2.99 5 3.98 5 5 C6.98 5.66 8.96 6.32 11 7 C10.67 9.31 10.34 11.62 10 14 C9.62875 13.4225 9.2575 12.845 8.875 12.25 C7.02973499 9.78453571 7.02973499 9.78453571 3.875 8.125 C1 6 1 6 0.125 2.75 C0.08375 1.8425 0.0425 0.935 0 0 Z " fill="#6D6452" transform="translate(185,270)"/>
<path d="M0 0 C0 0.66 0 1.32 0 2 C-0.99 2 -1.98 2 -3 2 C-3 2.66 -3 3.32 -3 4 C-6.3 4 -9.6 4 -13 4 C-13 4.66 -13 5.32 -13 6 C-13.99 6 -14.98 6 -16 6 C-16 5.01 -16 4.02 -16 3 C-14.35 3 -12.7 3 -11 3 C-11 2.34 -11 1.68 -11 1 C-3.375 -1.125 -3.375 -1.125 0 0 Z " fill="#B1A991" transform="translate(127,187)"/>
<path d="M0 0 C3.1575985 0 5.19184563 0.59592281 8 2 C8.33 1.34 8.66 0.68 9 0 C9.99 0 10.98 0 12 0 C11.67 1.32 11.34 2.64 11 4 C11.66 4 12.32 4 13 4 C13 4.99 13 5.98 13 7 C9.88452559 6.32116957 7.14862279 5.25893098 4.25 3.9375 C3.45078125 3.57527344 2.6515625 3.21304688 1.828125 2.83984375 C1.22484375 2.56269531 0.6215625 2.28554687 0 2 C0 1.34 0 0.68 0 0 Z " fill="#D2C19D" transform="translate(243,184)"/>
<path d="M0 0 C2.3828125 0.0234375 2.3828125 0.0234375 5.125 0.375 C6.03507813 0.48585938 6.94515625 0.59671875 7.8828125 0.7109375 C8.93082031 0.85402344 8.93082031 0.85402344 10 1 C9.67 1.99 9.34 2.98 9 4 C10.65 4.33 12.3 4.66 14 5 C14 5.33 14 5.66 14 6 C5.42857143 6.14285714 5.42857143 6.14285714 2 5 C2 4.34 2 3.68 2 3 C0.68 2.67 -0.64 2.34 -2 2 C-1.34 1.34 -0.68 0.68 0 0 Z " fill="#C1B28F" transform="translate(206,271)"/>
<path d="M0 0 C2.97 0.33 5.94 0.66 9 1 C9 1.66 9 2.32 9 3 C9.99 3 10.98 3 12 3 C12 3.99 12 4.98 12 6 C12.66 6.33 13.32 6.66 14 7 C12.35 7 10.7 7 9 7 C9 6.34 9 5.68 9 5 C4.545 4.01 4.545 4.01 0 3 C0 2.01 0 1.02 0 0 Z " fill="#645E51" transform="translate(222,194)"/>
<path d="M0 0 C2.367246 1.85262731 2.97542361 2.89722599 3.6875 5.875 C3.96157612 8.61576125 4.08090987 11.24906429 4 14 C2.68 14 1.36 14 0 14 C0.020625 13.113125 0.04125 12.22625 0.0625 11.3125 C0.10448881 8.08292905 0.10448881 8.08292905 -0.5625 5.3125 C-1 3 -1 3 0 0 Z " fill="#AA9C85" transform="translate(196,76)"/>
<path d="M0 0 C2.31 0.33 4.62 0.66 7 1 C6.67 1.66 6.34 2.32 6 3 C4.00714063 3.37366113 2.00636471 3.70740515 0 4 C-0.33 4.33 -0.66 4.66 -1 5 C-2.51928038 5.07179964 -4.04167482 5.08392007 -5.5625 5.0625 C-6.38878906 5.05347656 -7.21507813 5.04445312 -8.06640625 5.03515625 C-8.70449219 5.02355469 -9.34257813 5.01195312 -10 5 C-10 4.01 -10 3.02 -10 2 C-6.7 2 -3.4 2 0 2 C0 1.34 0 0.68 0 0 Z " fill="#726B5E" transform="translate(124,189)"/>
<path d="M0 0 C0.33 0.66 0.66 1.32 1 2 C0 4 0 4 -1.84765625 4.6328125 C-2.57855469 4.79523438 -3.30945313 4.95765625 -4.0625 5.125 C-4.79597656 5.29257813 -5.52945313 5.46015625 -6.28515625 5.6328125 C-6.85105469 5.75398437 -7.41695312 5.87515625 -8 6 C-8.11214844 6.63421875 -8.22429687 7.2684375 -8.33984375 7.921875 C-8.55769531 8.60765625 -8.77554688 9.2934375 -9 10 C-11.5625 11.25 -11.5625 11.25 -14 12 C-12.90824101 7.71694552 -12.23128978 5.73368889 -8.3515625 3.421875 C-5.59420872 2.18850853 -2.83406013 1.04412742 0 0 Z " fill="#D6CBAD" transform="translate(153,170)"/>
<path d="M0 0 C3.96 0 7.92 0 12 0 C11.67 2.64 11.34 5.28 11 8 C10.29875 7.21625 9.5975 6.4325 8.875 5.625 C5.90842914 2.91639182 3.8417484 1.98277285 0 1 C0 0.67 0 0.34 0 0 Z " fill="#8C826E" transform="translate(142,207)"/>
<path d="M0 0 C2.64 0.33 5.28 0.66 8 1 C8 1.33 8 1.66 8 2 C6.02 2 4.04 2 2 2 C2 2.66 2 3.32 2 4 C-1.63423209 6.32590854 -4.77088331 6.16265833 -9 6 C-7.25 4 -7.25 4 -5 2 C-3.68 2 -2.36 2 -1 2 C-0.67 1.34 -0.34 0.68 0 0 Z " fill="#58513F" transform="translate(131,189)"/>
<path d="M0 0 C-0.33 0.99 -0.66 1.98 -1 3 C-0.01 2.67 0.98 2.34 2 2 C2 4.31 2 6.62 2 9 C1.01 8.67 0.02 8.34 -1 8 C-1 7.34 -1 6.68 -1 6 C-1.639375 5.7525 -2.27875 5.505 -2.9375 5.25 C-5 4 -5 4 -5.75 1.875 C-5.8325 1.25625 -5.915 0.6375 -6 0 C-3 -1 -3 -1 0 0 Z " fill="#554C3E" transform="translate(202,211)"/>
<path d="M0 0 C0 0.66 0 1.32 0 2 C0.99 2.66 1.98 3.32 3 4 C1.35 4 -0.3 4 -2 4 C-2 4.66 -2 5.32 -2 6 C-4.31 6 -6.62 6 -9 6 C-9 5.34 -9 4.68 -9 4 C-8.34 4 -7.68 4 -7 4 C-6.67 3.01 -6.34 2.02 -6 1 C-4 0 -4 0 0 0 Z " fill="#8A7C5B" transform="translate(102,182)"/>
<path d="M0 0 C2.31 0 4.62 0 7 0 C6.67 0.99 6.34 1.98 6 3 C6.99 3.33 7.98 3.66 9 4 C8.01 4 7.02 4 6 4 C6 4.99 6 5.98 6 7 C5.34 7 4.68 7 4 7 C4 6.34 4 5.68 4 5 C2.68 5 1.36 5 0 5 C0 3.35 0 1.7 0 0 Z " fill="#7B7062" transform="translate(196,279)"/>
<path d="M0 0 C0.66 0 1.32 0 2 0 C3.46939453 4.30322683 4.77443263 8.62297367 6 13 C5.34 13 4.68 13 4 13 C0 7.58823529 0 7.58823529 0 5 C-0.66 4.67 -1.32 4.34 -2 4 C-1 1 -1 1 0 0 Z " fill="#2E2315" transform="translate(167,250)"/>
<path d="M0 0 C0.33 1.32 0.66 2.64 1 4 C-3.75 5 -3.75 5 -6 5 C-6 4.34 -6 3.68 -6 3 C-8.97 3.66 -11.94 4.32 -15 5 C-14.67 3.68 -14.34 2.36 -14 1 C-12.14375 1.0309375 -12.14375 1.0309375 -10.25 1.0625 C-6.71157356 1.06875164 -3.45338044 0 0 0 Z " fill="#D7C6B1" transform="translate(238,211)"/>
<path d="M0 0 C-0.99 0.33 -1.98 0.66 -3 1 C-3.33 3.31 -3.66 5.62 -4 8 C-5.32 8.33 -6.64 8.66 -8 9 C-8.33 7.35 -8.66 5.7 -9 4 C-8.01 3.34 -7.02 2.68 -6 2 C-6.66 2 -7.32 2 -8 2 C-7 0 -7 0 -5.125 -0.6875 C-3 -1 -3 -1 0 0 Z " fill="#0B0500" transform="translate(183,260)"/>
<path d="M0 0 C-1.12451727 2.9719385 -2.22293791 5.33440687 -4 8 C-4.66 8 -5.32 8 -6 8 C-6.33 8.66 -6.66 9.32 -7 10 C-7.66 9.67 -8.32 9.34 -9 9 C-8 6 -8 6 -6 4 C-5.67 3.01 -5.34 2.02 -5 1 C-2 0 -2 0 0 0 Z " fill="#E4DCBC" transform="translate(142,176)"/>
<path d="M0 0 C0.99 0.33 1.98 0.66 3 1 C3 1.66 3 2.32 3 3 C3.66 2.67 4.32 2.34 5 2 C5 1.34 5 0.68 5 0 C6.98 0 8.96 0 11 0 C11.33 0.66 11.66 1.32 12 2 C11.01 2 10.02 2 9 2 C9 2.66 9 3.32 9 4 C5.7 4.33 2.4 4.66 -1 5 C-1.33 4.01 -1.66 3.02 -2 2 C-1.34 2 -0.68 2 0 2 C0 1.34 0 0.68 0 0 Z " fill="#BAA784" transform="translate(106,176)"/>
<path d="M0 0 C4.62 0 9.24 0 14 0 C14 0.99 14 1.98 14 3 C8.78020872 3.1799928 4.92737019 2.97094808 0 1 C0 0.67 0 0.34 0 0 Z " fill="#423B29" transform="translate(314,0)"/>
<path d="M0 0 C0.33 0.66 0.66 1.32 1 2 C1.66 2 2.32 2 3 2 C3 2.66 3 3.32 3 4 C6.3 4.99 9.6 5.98 13 7 C13 7.33 13 7.66 13 8 C7.49633208 8.32374517 3.56327794 8.53286034 -1 5 C-0.67 3.35 -0.34 1.7 0 0 Z " fill="#D0BE9B" transform="translate(187,263)"/>
<path d="M0 0 C0 1.32 0 2.64 0 4 C0.99 4.33 1.98 4.66 3 5 C2.01 5 1.02 5 0 5 C0 5.66 0 6.32 0 7 C-2.97 6.505 -2.97 6.505 -6 6 C-3.84615385 0 -3.84615385 0 0 0 Z " fill="#D3C499" transform="translate(166,262)"/>
<path d="M0 0 C1.859375 0.21484375 1.859375 0.21484375 4 1 C5.265625 3.06640625 5.265625 3.06640625 6.25 5.5625 C6.58515625 6.38878906 6.9203125 7.21507812 7.265625 8.06640625 C7.50796875 8.70449219 7.7503125 9.34257812 8 10 C5.33333333 8.66666667 2.66666667 7.33333333 0 6 C0 4 0 2 0 0 Z " fill="#DBCAAA" transform="translate(160,248)"/>
<path d="M0 0 C-2.5614319 0.3641989 -5.12358419 0.71662798 -7.6875 1.0625 C-8.7693457 1.2181543 -8.7693457 1.2181543 -9.87304688 1.37695312 C-13.84079957 1.9023633 -17.07885111 2.10596507 -21 1 C-21 0.67 -21 0.34 -21 0 C-5.37804878 -3.58536585 -5.37804878 -3.58536585 0 0 Z " fill="#493B2E" transform="translate(246,211)"/>
<path d="M0 0 C2.64 0 5.28 0 8 0 C8 0.66 8 1.32 8 2 C5.69 2.33 3.38 2.66 1 3 C0.67 3.99 0.34 4.98 0 6 C0.66 6.33 1.32 6.66 2 7 C1.01 7 0.02 7 -1 7 C-1.33 6.01 -1.66 5.02 -2 4 C-2.99 4 -3.98 4 -5 4 C-5 3.34 -5 2.68 -5 2 C-3.35 2 -1.7 2 0 2 C0 1.34 0 0.68 0 0 Z " fill="#241F1D" transform="translate(170,208)"/>
<path d="M0 0 C4.95 0.99 4.95 0.99 10 2 C10 2.66 10 3.32 10 4 C10.66 4.33 11.32 4.66 12 5 C10.54176788 5.0270043 9.08339325 5.04639787 7.625 5.0625 C6.81289062 5.07410156 6.00078125 5.08570313 5.1640625 5.09765625 C3 5 3 5 1 4 C0.67 2.68 0.34 1.36 0 0 Z " fill="#9D9985" transform="translate(237,196)"/>
<path d="M0 0 C1.32 0.33 2.64 0.66 4 1 C3.01 1.495 3.01 1.495 2 2 C2.33 3.65 2.66 5.3 3 7 C3.99 7.33 4.98 7.66 6 8 C5.67 10.31 5.34 12.62 5 15 C4.71125 14.38125 4.4225 13.7625 4.125 13.125 C3.06279958 10.86674235 3.06279958 10.86674235 1 9 C0.5859375 6.8359375 0.5859375 6.8359375 0.375 4.375 C0.30023438 3.55773437 0.22546875 2.74046875 0.1484375 1.8984375 C0.09945312 1.27195313 0.05046875 0.64546875 0 0 Z " fill="#3D2F1C" transform="translate(160,236)"/>
<path d="M0 0 C3.3125 0.1875 3.3125 0.1875 7 1 C8.9375 3.5625 8.9375 3.5625 10 6 C9.01 6 8.02 6 7 6 C7 5.34 7 4.68 7 4 C6.1028125 4.309375 6.1028125 4.309375 5.1875 4.625 C3 5 3 5 0 3 C0 2.01 0 1.02 0 0 Z " fill="#CDBFA7" transform="translate(140,207)"/>
<path d="M0 0 C3.3 0 6.6 0 10 0 C10 0.66 10 1.32 10 2 C7.69 2.33 5.38 2.66 3 3 C2.67 4.32 2.34 5.64 2 7 C0.5393715 4.35261084 0 3.10551666 0 0 Z " fill="#3B3530" transform="translate(160,208)"/>
<path d="M0 0 C0.66 0.33 1.32 0.66 2 1 C2 2.65 2 4.3 2 6 C-1.05847848 6.54372951 -3.88772805 7 -7 7 C-4.375 2.125 -4.375 2.125 -1 1 C-0.67 1.99 -0.34 2.98 0 4 C0 2.68 0 1.36 0 0 Z " fill="#DACDA7" transform="translate(196,247)"/>
<path d="M0 0 C1.32 0 2.64 0 4 0 C4 0.66 4 1.32 4 2 C4.804375 2.12375 5.60875 2.2475 6.4375 2.375 C7.7059375 2.684375 7.7059375 2.684375 9 3 C9.33 3.66 9.66 4.32 10 5 C3.375 5.125 3.375 5.125 0 4 C0 2.68 0 1.36 0 0 Z " fill="#201D18" transform="translate(206,194)"/>
<path d="M0 0 C2 2 2 2 2.125 4.625 C2.08375 5.40875 2.0425 6.1925 2 7 C-0.64 7 -3.28 7 -6 7 C-6 6.34 -6 5.68 -6 5 C-5.195625 4.731875 -4.39125 4.46375 -3.5625 4.1875 C-2.716875 3.795625 -1.87125 3.40375 -1 3 C-0.67 2.01 -0.34 1.02 0 0 Z M-14 7 C-11.36 7 -8.72 7 -6 7 C-6 7.33 -6 7.66 -6 8 C-8.64 8 -11.28 8 -14 8 C-14 7.67 -14 7.34 -14 7 Z " fill="#25231D" transform="translate(158,186)"/>
<path d="M0 0 C5 2 5 2 10 4 C9.01 5.485 9.01 5.485 8 7 C4.12867972 6.42647107 1.91827204 4.51295648 -1 2 C-0.67 1.34 -0.34 0.68 0 0 Z " fill="#958561" transform="translate(229,181)"/>
<path d="M0 0 C3.27642756 0.25866533 4.60820723 0.55416685 6.8125 3.0625 C7.204375 3.701875 7.59625 4.34125 8 5 C6.02 5.33 4.04 5.66 2 6 C2 5.34 2 4.68 2 4 C0.54166642 2.37485532 0.54166642 2.37485532 -1 1 C-0.67 0.67 -0.34 0.34 0 0 Z " fill="#F8EECA" transform="translate(228,185)"/>
<path d="M0 0 C0.66 0.33 1.32 0.66 2 1 C1.33333333 5.66666667 0.66666667 10.33333333 0 15 C-0.99 15 -1.98 15 -3 15 C-2.67 12.36 -2.34 9.72 -2 7 C-1.34 7 -0.68 7 0 7 C0 4.69 0 2.38 0 0 Z " fill="#A9998B" transform="translate(176,105)"/>
<path d="M0 0 C0.99 0.33 1.98 0.66 3 1 C-0.0194645 2.92910232 -2.54912362 4.1372809 -6 5 C-6.33 5.66 -6.66 6.32 -7 7 C-9.5625 7.625 -9.5625 7.625 -12 8 C-10.9375 5.625 -10.9375 5.625 -9 3 C-5.4375 1.75 -5.4375 1.75 -2 1 C-1.34 0.67 -0.68 0.34 0 0 Z " fill="#CEBE97" transform="translate(153,268)"/>
<path d="M0 0 C0.66 0.33 1.32 0.66 2 1 C2 1.99 2 2.98 2 4 C1.01 4.495 1.01 4.495 0 5 C-0.68472665 6.88764903 -0.68472665 6.88764903 -1.125 9.0625 C-1.29257813 9.79597656 -1.46015625 10.52945313 -1.6328125 11.28515625 C-1.75398437 11.85105469 -1.87515625 12.41695312 -2 13 C-2.99 13 -3.98 13 -5 13 C-4.67 10.69 -4.34 8.38 -4 6 C-3.34 6 -2.68 6 -2 6 C-1.34 4.02 -0.68 2.04 0 0 Z " fill="#D7CBAD" transform="translate(201,230)"/>
<path d="M0 0 C1.32 0.33 2.64 0.66 4 1 C2.80100302 4.0831351 1.52299523 7.06279492 0 10 C-1 8 -2 6 -3 4 C-2.34 4 -1.68 4 -1 4 C-0.67 2.68 -0.34 1.36 0 0 Z " fill="#352B16" transform="translate(194,236)"/>
<path d="M0 0 C1.5 1.1875 1.5 1.1875 3 3 C3.1875 5.6875 3.1875 5.6875 3 8 C0.03 7.505 0.03 7.505 -3 7 C-2.38722388 4.03824877 -1.74627478 2.61941217 0 0 Z " fill="#A59268" transform="translate(145,160)"/>
<path d="M0 0 C0.33 0.66 0.66 1.32 1 2 C1.66 2 2.32 2 3 2 C3.125 5.375 3.125 5.375 3 9 C2.34 9.66 1.68 10.32 1 11 C-0.98362069 8.08291076 -0.9876191 6.87619096 -0.625 3.25 C-0.41875 2.1775 -0.2125 1.105 0 0 Z " fill="#40351F" transform="translate(200,217)"/>
<path d="M0 0 C1.98 0 3.96 0 6 0 C6.66 1.32 7.32 2.64 8 4 C4.7 3.67 1.4 3.34 -2 3 C-1.34 2.67 -0.68 2.34 0 2 C0 1.34 0 0.68 0 0 Z " fill="#F5ECD5" transform="translate(100,186)"/>
<path d="M0 0 C3.80425687 1.09900754 6.43763713 1.92516456 9 5 C9.66 5.66 10.32 6.32 11 7 C9.68 7.33 8.36 7.66 7 8 C7 7.34 7 6.68 7 6 C6.01 6 5.02 6 4 6 C4 5.34 4 4.68 4 4 C3.34 4 2.68 4 2 4 C2 3.34 2 2.68 2 2 C1.34 2 0.68 2 0 2 C0 1.34 0 0.68 0 0 Z " fill="#9C8E78" transform="translate(180,264)"/>
<path d="M0 0 C0.33 0.66 0.66 1.32 1 2 C-0.9626228 4.04795423 -2.4277307 4.94976638 -5.26953125 5.19921875 C-7.51954383 5.18858877 -9.75385562 5.12958525 -12 5 C-11.401875 4.71125 -10.80375 4.4225 -10.1875 4.125 C-7.80672208 2.95257974 -7.80672208 2.95257974 -5 1 C-3.34450469 0.61500109 -1.6777567 0.27206865 0 0 Z " fill="#C5B58D" transform="translate(159,268)"/>
<path d="M0 0 C2 2 2 2 2.125 5.125 C2.08375 6.07375 2.0425 7.0225 2 8 C0.35 8 -1.3 8 -3 8 C-3 6.68 -3 5.36 -3 4 C-2.34 4 -1.68 4 -1 4 C-0.67 2.68 -0.34 1.36 0 0 Z " fill="#231C18" transform="translate(165,225)"/>
<path d="M0 0 C0.99 1.32 1.98 2.64 3 4 C-0.83325617 6.70582788 -3.32538149 7.32613618 -8 7 C-8.33 7.66 -8.66 8.32 -9 9 C-9 8.01 -9 7.02 -9 6 C-6.03 5.34 -3.06 4.68 0 4 C-0.33 3.01 -0.66 2.02 -1 1 C-0.67 0.67 -0.34 0.34 0 0 Z " fill="#897962" transform="translate(266,195)"/>
<path d="M0 0 C2.475 0.495 2.475 0.495 5 1 C5.33 1.99 5.66 2.98 6 4 C6.99 4 7.98 4 9 4 C9 4.99 9 5.98 9 7 C6 7 6 7 4.5 5.5625 C4.005 5.046875 3.51 4.53125 3 4 C2.01 3.67 1.02 3.34 0 3 C0 2.01 0 1.02 0 0 Z " fill="#322D27" transform="translate(210,193)"/>
<path d="M0 0 C4.81449408 0.48144941 7.60171741 0.8008587 12 3 C9.03 2.67 6.06 2.34 3 2 C3 3.32 3 4.64 3 6 C2.34 6 1.68 6 1 6 C1 5.01 1 4.02 1 3 C0.34 2.67 -0.32 2.34 -1 2 C-0.67 1.34 -0.34 0.68 0 0 Z " fill="#3D2F1A" transform="translate(94,188)"/>
<path d="M0 0 C0.99 0.33 1.98 0.66 3 1 C2.67 2.32 2.34 3.64 2 5 C1.34 3.35 0.68 1.7 0 0 Z M-2.4375 5.9375 C-1.303125 5.958125 -0.16875 5.97875 1 6 C-0.32 6.33 -1.64 6.66 -3 7 C-3 7.66 -3 8.32 -3 9 C-5.64 9 -8.28 9 -11 9 C-10.360625 8.690625 -9.72125 8.38125 -9.0625 8.0625 C-5.02564103 5.98290598 -5.02564103 5.98290598 -2.4375 5.9375 Z " fill="#312C25" transform="translate(155,184)"/>
<path d="M0 0 C3.875 1.75 3.875 1.75 5 4 C5.66 4.33 6.32 4.66 7 5 C6.34 5.66 5.68 6.32 5 7 C4.01 6.67 3.02 6.34 2 6 C1.34 6 0.68 6 0 6 C-0.99 5.34 -1.98 4.68 -3 4 C-1.68 3.67 -0.36 3.34 1 3 C0.67 2.01 0.34 1.02 0 0 Z " fill="#B29F7E" transform="translate(147,165)"/>
<path d="M0 0 C2.89932357 2.39509338 3.50168276 4.31245243 4 8 C3.01 8.495 3.01 8.495 2 9 C1.01 8.34 0.02 7.68 -1 7 C-0.67 6.01 -0.34 5.02 0 4 C-0.33 3.01 -0.66 2.02 -1 1 C-0.67 0.67 -0.34 0.34 0 0 Z " fill="#080201" transform="translate(180,102)"/>
<path d="M0 0 C0.99 0.66 1.98 1.32 3 2 C1.3125 3.5625 1.3125 3.5625 -1 5 C-3.6875 4.8125 -3.6875 4.8125 -6 4 C-6.33 3.34 -6.66 2.68 -7 2 C-3.6875 0.875 -3.6875 0.875 0 0 Z " fill="#E0D6B8" transform="translate(219,213)"/>
<path d="M0 0 C0.66 0 1.32 0 2 0 C2 0.66 2 1.32 2 2 C3.423125 2.185625 3.423125 2.185625 4.875 2.375 C8 3 8 3 10 5 C7.69 5.33 5.38 5.66 3 6 C2.67 5.34 2.34 4.68 2 4 C1.01 3.34 0.02 2.68 -1 2 C-0.67 1.34 -0.34 0.68 0 0 Z " fill="#EBDCC3" transform="translate(254,195)"/>
<path d="M0 0 C0 0.99 0 1.98 0 3 C-2.1875 4.60546875 -2.1875 4.60546875 -5 6.1875 C-5.928125 6.71730469 -6.85625 7.24710937 -7.8125 7.79296875 C-8.534375 8.19128906 -9.25625 8.58960938 -10 9 C-8.29410439 5.25017417 -6.38633833 3.39521492 -3 1 C-2.01 0.67 -1.02 0.34 0 0 Z " fill="#8D7E6B" transform="translate(162,274)"/>
<path d="M0 0 C4.0042343 3.49087093 5.62671065 5.64951939 6 11 C5.01 11.495 5.01 11.495 4 12 C1.77060567 8.6559085 2 7.81650662 2 4 C1.08431094 1.74867483 1.08431094 1.74867483 0 0 Z " fill="#E3D6B8" transform="translate(150,213)"/>
<path d="M0 0 C-1.98 0.99 -1.98 0.99 -4 2 C-3.67 3.32 -3.34 4.64 -3 6 C-4.32 6 -5.64 6 -7 6 C-7 5.34 -7 4.68 -7 4 C-7.66 3.67 -8.32 3.34 -9 3 C-6.40821726 0.40821726 -3.54324677 -1.77162338 0 0 Z " fill="#21231F" transform="translate(209,188)"/>
<path d="M0 0 C0.66 0.99 1.32 1.98 2 3 C1.67 3.66 1.34 4.32 1 5 C0.34 5 -0.32 5 -1 5 C-0.79375 6.11375 -0.5875 7.2275 -0.375 8.375 C-0.25125 9.57125 -0.1275 10.7675 0 12 C-0.66 12.66 -1.32 13.32 -2 14 C-2.75479539 9.72282611 -3.3174498 6.19188572 -2 2 C-1.34 1.34 -0.68 0.68 0 0 Z " fill="#3C3023" transform="translate(155,170)"/>
<path d="M0 0 C0.66 0.33 1.32 0.66 2 1 C2 2.65 2 4.3 2 6 C0.02 6.99 0.02 6.99 -2 8 C-2.125 5.125 -2.125 5.125 -2 2 C-1.34 1.34 -0.68 0.68 0 0 Z " fill="#D9CAA1" transform="translate(146,220)"/>
<path d="M0 0 C2.97 1.65 5.94 3.3 9 5 C8.67 5.66 8.34 6.32 8 7 C7.401875 6.649375 6.80375 6.29875 6.1875 5.9375 C3.89186786 4.66695302 3.89186786 4.66695302 1 6 C0.67 4.02 0.34 2.04 0 0 Z " fill="#C8BA99" transform="translate(222,184)"/>
<path d="M0 0 C0.99 0 1.98 0 3 0 C4.42944945 2.35438733 5.08661261 3.48032433 4.625 6.25 C4.41875 6.8275 4.2125 7.405 4 8 C3.34 8 2.68 8 2 8 C1.34 5.36 0.68 2.72 0 0 Z " fill="#AEA08D" transform="translate(202,150)"/>
<path d="M0 0 C0.33 0.99 0.66 1.98 1 3 C-0.31200404 4.35432675 -1.64631404 5.68733482 -3 7 C-3.33 7 -3.66 7 -4 7 C-4 5.02 -4 3.04 -4 1 C-2 0 -2 0 0 0 Z " fill="#060300" transform="translate(174,138)"/>
<path d="M0 0 C1.485 0.99 1.485 0.99 3 2 C3.66 1.67 4.32 1.34 5 1 C5 2.98 5 4.96 5 7 C3.35 6.67 1.7 6.34 0 6 C0 4.02 0 2.04 0 0 Z " fill="#D6C8A7" transform="translate(152,222)"/>
<path d="M0 0 C4.95 0.99 4.95 0.99 10 2 C6 5 6 5 3 5 C3 4.34 3 3.68 3 3 C2.01 3 1.02 3 0 3 C0 2.01 0 1.02 0 0 Z " fill="#D5CCB4" transform="translate(110,200)"/>
<path d="M0 0 C0.66 0.66 1.32 1.32 2 2 C3.98821313 2.39764263 5.98944339 2.73775349 8 3 C7.67 3.66 7.34 4.32 7 5 C3.7 4.67 0.4 4.34 -3 4 C-3 3.34 -3 2.68 -3 2 C-2.01 1.34 -1.02 0.68 0 0 Z " fill="#B6A788" transform="translate(226,188)"/>
<path d="M0 0 C0.33 0.99 0.66 1.98 1 3 C0.67 3.66 0.34 4.32 0 5 C-3.47325181 6.1577506 -6.36067448 6.06866652 -10 6 C-10 5.67 -10 5.34 -10 5 C-8.35 4.67 -6.7 4.34 -5 4 C-5 3.34 -5 2.68 -5 2 C-3.68 2 -2.36 2 -1 2 C-0.67 1.34 -0.34 0.68 0 0 Z " fill="#978667" transform="translate(149,168)"/>
<path d="M0 0 C0.99 0 1.98 0 3 0 C3.6875 2.3125 3.6875 2.3125 4 5 C2.5625 6.8125 2.5625 6.8125 1 8 C0 7 0 7 -0.0625 3.4375 C-0.041875 2.303125 -0.02125 1.16875 0 0 Z " fill="#A49C89" transform="translate(170,123)"/>
<path d="M0 0 C0.33 0 0.66 0 1 0 C2.42705634 5.30723432 3.4002792 9.53891111 2 15 C-0.02558881 11.65060119 -0.21738987 9.13037449 -0.125 5.25 C-0.09792969 3.77273437 -0.09792969 3.77273437 -0.0703125 2.265625 C-0.04710937 1.51796875 -0.02390625 0.7703125 0 0 Z " fill="#7F7362" transform="translate(197,108)"/>
<path d="M0 0 C0 1.32 0 2.64 0 4 C-1.65 4.66 -3.3 5.32 -5 6 C-5.33 4.35 -5.66 2.7 -6 1 C-3.92446352 0.4465236 -2.15634036 0 0 0 Z " fill="#CFBF94" transform="translate(197,252)"/>
<path d="M0 0 C4.55384615 -0.36923077 4.55384615 -0.36923077 6.8125 1.5 C7.204375 1.995 7.59625 2.49 8 3 C6.68 3.99 5.36 4.98 4 6 C3.34 5.67 2.68 5.34 2 5 C2.33 3.68 2.66 2.36 3 1 C2.01 0.67 1.02 0.34 0 0 Z " fill="#544B45" transform="translate(154,207)"/>
<path d="M0 0 C0.66 0.66 1.32 1.32 2 2 C1.8125 4.0625 1.8125 4.0625 1 6 C0.01 6.33 -0.98 6.66 -2 7 C-2.66 6.67 -3.32 6.34 -4 6 C-4 4.68 -4 3.36 -4 2 C-2.68 1.34 -1.36 0.68 0 0 Z " fill="#3E2E17" transform="translate(268,199)"/>
<path d="M0 0 C2.31 0.33 4.62 0.66 7 1 C6.67 1.99 6.34 2.98 6 4 C4.35 4 2.7 4 1 4 C0.67 2.68 0.34 1.36 0 0 Z " fill="#6C5A35" transform="translate(251,191)"/>
<path d="M0 0 C2.875 -0.1875 2.875 -0.1875 6 0 C6.66 0.99 7.32 1.98 8 3 C7.67 3.66 7.34 4.32 7 5 C3.34683329 3.75023244 2.21934164 3.32901247 0 0 Z " fill="#837450" transform="translate(236,186)"/>
<path d="M0 0 C0.66 0.66 1.32 1.32 2 2 C1.625 5.125 1.625 5.125 1 8 C1.66 8 2.32 8 3 8 C2.67 9.32 2.34 10.64 2 12 C1.34 11.67 0.68 11.34 0 11 C0 7.37 0 3.74 0 0 Z " fill="#93877A" transform="translate(195,82)"/>
<path d="M0 0 C2.6875 0.3125 2.6875 0.3125 5 1 C4.3125 2.9375 4.3125 2.9375 3 5 C0.375 5.75 0.375 5.75 -2 6 C-2.33 5.01 -2.66 4.02 -3 3 C-1.8125 1.4375 -1.8125 1.4375 0 0 Z " fill="#A69B86" transform="translate(186,65)"/>
<path d="M0 0 C0 0.66 0 1.32 0 2 C-2.64 2 -5.28 2 -8 2 C-8 2.66 -8 3.32 -8 4 C-8.99 4 -9.98 4 -11 4 C-11 3.01 -11 2.02 -11 1 C-7.26513121 0.4254048 -3.78706732 0 0 0 Z " fill="#958E7B" transform="translate(122,189)"/>
<path d="M0 0 C1.98 0.66 3.96 1.32 6 2 C5.67 3.32 5.34 4.64 5 6 C3.68 5.67 2.36 5.34 1 5 C0.67 3.35 0.34 1.7 0 0 Z " fill="#BAA98F" transform="translate(210,167)"/>
<path d="M0 0 C0.66 0 1.32 0 2 0 C4 3 4 3 4 6 C4.66 6 5.32 6 6 6 C5.67 6.66 5.34 7.32 5 8 C3.0625 7.375 3.0625 7.375 1 6 C0.25 2.875 0.25 2.875 0 0 Z " fill="#5C5343" transform="translate(185,270)"/>
<path d="M0 0 C0.66 0.33 1.32 0.66 2 1 C1.67 3.64 1.34 6.28 1 9 C-1 8 -1 8 -1.75 6.1875 C-2.05694702 3.50171361 -1.38111722 2.2747813 0 0 Z " fill="#CCBF9F" transform="translate(195,242)"/>
<path d="M0 0 C0.66 0.33 1.32 0.66 2 1 C3.87056791 1.2275015 5.74685958 1.40962811 7.625 1.5625 C8.62789062 1.64628906 9.63078125 1.73007813 10.6640625 1.81640625 C11.43492187 1.87699219 12.20578125 1.93757812 13 2 C13 2.33 13 2.66 13 3 C8.05 3 3.1 3 -2 3 C-2 2.34 -2 1.68 -2 1 C-1.34 0.67 -0.68 0.34 0 0 Z " fill="#2E2C28" transform="translate(224,199)"/>
<path d="M0 0 C0.94875 0.350625 1.8975 0.70125 2.875 1.0625 C2.875 2.0525 2.875 3.0425 2.875 4.0625 C-2.875 2.3125 -2.875 2.3125 -5.125 0.0625 C-3.125 -0.9375 -3.125 -0.9375 0 0 Z " fill="#786948" transform="translate(261.125,192.9375)"/>
<path d="M0 0 C0.99 0.33 1.98 0.66 3 1 C3 1.99 3 2.98 3 4 C0.69 4 -1.62 4 -4 4 C-2.68 2.68 -1.36 1.36 0 0 Z " fill="#4B443D" transform="translate(126,191)"/>
<path d="M0 0 C0 0.66 0 1.32 0 2 C-2.31 2.33 -4.62 2.66 -7 3 C-7.33 2.01 -7.66 1.02 -8 0 C-2.25 -1.125 -2.25 -1.125 0 0 Z " fill="#8F8972" transform="translate(135,187)"/>
<path d="M0 0 C1.485 0.99 1.485 0.99 3 2 C3.1875 4.625 3.1875 4.625 3 7 C1.68 7.33 0.36 7.66 -1 8 C-0.67 5.36 -0.34 2.72 0 0 Z " fill="#635B4A" transform="translate(214,181)"/>
<path d="M0 0 C0.763125 0.20625 1.52625 0.4125 2.3125 0.625 C1.9825 1.285 1.6525 1.945 1.3125 2.625 C-1.0015622 3.35575648 -3.33578869 4.02638258 -5.6875 4.625 C-5.6875 3.635 -5.6875 2.645 -5.6875 1.625 C-2.6875 -0.375 -2.6875 -0.375 0 0 Z " fill="#948762" transform="translate(138.6875,174.375)"/>
<path d="M0 0 C2.475 0.99 2.475 0.99 5 2 C4.01 2.495 4.01 2.495 3 3 C2.27306096 4.97888961 1.60183749 6.97954558 1 9 C-0.61949011 6.42786866 -1.04408751 5.32330841 -0.625 2.25 C-0.41875 1.5075 -0.2125 0.765 0 0 Z " fill="#988C73" transform="translate(169,120)"/>
<path d="M0 0 C0.33 0.99 0.66 1.98 1 3 C1.66 3.33 2.32 3.66 3 4 C1.68 4.99 0.36 5.98 -1 7 C-2 4 -2 4 -1.0625 1.8125 C-0.5365625 0.9153125 -0.5365625 0.9153125 0 0 Z " fill="#5E544E" transform="translate(164,279)"/>
<path d="M0 0 C0.99 0.33 1.98 0.66 3 1 C3 1.99 3 2.98 3 4 C2.34 4 1.68 4 1 4 C1 5.65 1 7.3 1 9 C-1 6 -1 6 -0.625 2.8125 C-0.41875 1.884375 -0.2125 0.95625 0 0 Z " fill="#392E23" transform="translate(159,227)"/>
<path d="M0 0 C-0.99 0.495 -0.99 0.495 -2 1 C-2.65213292 3.02463255 -2.65213292 3.02463255 -3 5 C-3.66 4.67 -4.32 4.34 -5 4 C-5.625 1.9375 -5.625 1.9375 -6 0 C-3 -1 -3 -1 0 0 Z " fill="#433D35" transform="translate(202,211)"/>
<path d="M0 0 C1.37562854 1.28965176 2.70766393 2.62689293 4 4 C4 4.66 4 5.32 4 6 C2.35 5.67 0.7 5.34 -1 5 C-1.33 3.68 -1.66 2.36 -2 1 C-1.34 0.67 -0.68 0.34 0 0 Z " fill="#0A0100" transform="translate(100,190)"/>
<path d="M0 0 C-0.33 1.32 -0.66 2.64 -1 4 C-2.98 4 -4.96 4 -7 4 C-6.34 3.67 -5.68 3.34 -5 3 C-5 2.34 -5 1.68 -5 1 C-3 0 -3 0 0 0 Z " fill="#6C5D3A" transform="translate(107,181)"/>
<path d="M0 0 C0.99 0.33 1.98 0.66 3 1 C3 2.32 3 3.64 3 5 C1.35 5.66 -0.3 6.32 -2 7 C-1.34 4.69 -0.68 2.38 0 0 Z " fill="#191209" transform="translate(163,155)"/>
<path d="M0 0 C7.50769231 -0.36923077 7.50769231 -0.36923077 10 1.5 C10.495 2.2425 10.495 2.2425 11 3 C9.68 3.33 8.36 3.66 7 4 C6.67 3.01 6.34 2.02 6 1 C4.02 1 2.04 1 0 1 C0 0.67 0 0.34 0 0 Z " fill="#B9AA88" transform="translate(192,271)"/>
<path d="M0 0 C0.99 0.33 1.98 0.66 3 1 C2.25 2.9375 2.25 2.9375 1 5 C-1.125 5.75 -1.125 5.75 -3 6 C-3 3 -3 3 -1.5 1.3125 C-0.7575 0.6628125 -0.7575 0.6628125 0 0 Z " fill="#312312" transform="translate(183,258)"/>
<path d="M0 0 C1.32 0 2.64 0 4 0 C3.67 1.32 3.34 2.64 3 4 C1.68 4.33 0.36 4.66 -1 5 C-0.67 3.35 -0.34 1.7 0 0 Z " fill="#E8D8BF" transform="translate(267,205)"/>
<path d="M0 0 C0.94875 0.04125 1.8975 0.0825 2.875 0.125 C2.545 1.445 2.215 2.765 1.875 4.125 C-0.435 3.465 -2.745 2.805 -5.125 2.125 C-3.125 0.125 -3.125 0.125 0 0 Z " fill="#EFE8D3" transform="translate(254.125,198.875)"/>
<path d="M0 0 C2.4375 0.375 2.4375 0.375 5 1 C5.33 1.66 5.66 2.32 6 3 C4.02 3.33 2.04 3.66 0 4 C0 2.66666667 0 1.33333333 0 0 Z " fill="#CCBEA9" transform="translate(96,196)"/>
<path d="M0 0 C1.68762851 1.6454378 3.3540349 3.31288577 5 5 C5 5.33 5 5.66 5 6 C3.35 6 1.7 6 0 6 C0 4.02 0 2.04 0 0 Z " fill="#8C8371" transform="translate(220,188)"/>
<path d="M0 0 C1.485 0.99 1.485 0.99 3 2 C3.1875 4.625 3.1875 4.625 3 7 C1.68 6.34 0.36 5.68 -1 5 C-0.67 3.35 -0.34 1.7 0 0 Z " fill="#7A7261" transform="translate(217,186)"/>
<path d="M0 0 C0.33 0 0.66 0 1 0 C1 1.65 1 3.3 1 5 C-1.64 5 -4.28 5 -7 5 C-6.67 4.34 -6.34 3.68 -6 3 C-2.9375 2.375 -2.9375 2.375 0 2 C0 1.34 0 0.68 0 0 Z " fill="#B5AE95" transform="translate(138,182)"/>
<path d="M0 0 C0.78375 0.04125 1.5675 0.0825 2.375 0.125 C2.375 1.115 2.375 2.105 2.375 3.125 C0.065 2.795 -2.245 2.465 -4.625 2.125 C-2.625 0.125 -2.625 0.125 0 0 Z " fill="#E3DABE" transform="translate(128.625,183.875)"/>
<path d="M0 0 C0.33 1.32 0.66 2.64 1 4 C1.66 4 2.32 4 3 4 C3.33 5.65 3.66 7.3 4 9 C2.68 8.67 1.36 8.34 0 8 C0 5.36 0 2.72 0 0 Z " fill="#231B13" transform="translate(154,176)"/>
<path d="M0 0 C1.32 0.66 2.64 1.32 4 2 C4 2.66 4 3.32 4 4 C2.37373596 5.38232443 0.7074998 6.71937515 -1 8 C-1.33 7.01 -1.66 6.02 -2 5 C-1.34 5 -0.68 5 0 5 C0 3.35 0 1.7 0 0 Z " fill="#181009" transform="translate(156,170)"/>
<path d="M0 0 C0.33 0.66 0.66 1.32 1 2 C0.67 2.66 0.34 3.32 0 4 C-2.32156597 4.40729228 -4.6568787 4.74438677 -7 5 C-7 4.34 -7 3.68 -7 3 C-4.69 2.01 -2.38 1.02 0 0 Z " fill="#C6B59C" transform="translate(153,170)"/>
<path d="M0 0 C1.36125 0.37125 1.36125 0.37125 2.75 0.75 C1.43 1.08 0.11 1.41 -1.25 1.75 C-1.25 2.41 -1.25 3.07 -1.25 3.75 C-3.23 3.75 -5.21 3.75 -7.25 3.75 C-4.05 -0.31153846 -4.05 -0.31153846 0 0 Z " fill="#B7A57E" transform="translate(139.25,170.25)"/>
<path d="M0 0 C2.4375 1.25 2.4375 1.25 3.4375 4.25 C0.7975 3.59 -1.8425 2.93 -4.5625 2.25 C-4.5625 1.59 -4.5625 0.93 -4.5625 0.25 C-2.5625 -0.75 -2.5625 -0.75 0 0 Z " fill="#BEB295" transform="translate(167.5625,257.75)"/>
<path d="M0 0 C-3.8503105 2.56687367 -5.58569763 1.83288724 -10 1 C-6.42181037 -1.33958553 -4.07775191 -0.9267618 0 0 Z " fill="#443B35" transform="translate(212,210)"/>
<path d="M0 0 C0.66 0 1.32 0 2 0 C2.33 1.65 2.66 3.3 3 5 C1.68 5 0.36 5 -1 5 C-1.33 4.01 -1.66 3.02 -2 2 C-1.34 2 -0.68 2 0 2 C0 1.34 0 0.68 0 0 Z " fill="#0E0300" transform="translate(130,198)"/>
<path d="M0 0 C0.99 0.33 1.98 0.66 3 1 C3 1.99 3 2.98 3 4 C3.33 4.99 3.66 5.98 4 7 C2.68 6.67 1.36 6.34 0 6 C0 4.02 0 2.04 0 0 Z " fill="#241914" transform="translate(97,190)"/>
<path d="M0 0 C1.98 0 3.96 0 6 0 C6.33 0.66 6.66 1.32 7 2 C6.01 2 5.02 2 4 2 C4 2.66 4 3.32 4 4 C3.01 4 2.02 4 1 4 C0.67 2.68 0.34 1.36 0 0 Z " fill="#B5A37C" transform="translate(111,176)"/>
</svg>
